<?xml version="1.0" encoding="UTF-8"?>
<svg id="Warstwa_1" data-name="Warstwa 1" xmlns="http://www.w3.org/2000/svg" xmlns:xlink="http://www.w3.org/1999/xlink" viewBox="0 0 480.37 160.1">
  <defs>
    <style>
      .cls-1 {
        fill: url(#Gradient_bez_nazwy_50-54);
      }

      .cls-2 {
        fill: url(#Gradient_bez_nazwy_50-81);
      }

      .cls-3 {
        fill: url(#Gradient_bez_nazwy_50-75);
      }

      .cls-4 {
        fill: url(#Gradient_bez_nazwy_50-66);
      }

      .cls-5 {
        fill: url(#Gradient_bez_nazwy_50-3);
      }

      .cls-6 {
        fill: url(#Gradient_bez_nazwy_50-24);
      }

      .cls-7 {
        fill: url(#Gradient_bez_nazwy_50-74);
      }

      .cls-8 {
        fill: url(#Gradient_bez_nazwy_50-84);
      }

      .cls-9 {
        fill: url(#Gradient_bez_nazwy_50-2);
      }

      .cls-10 {
        fill: url(#Gradient_bez_nazwy_50-40);
      }

      .cls-11 {
        fill: url(#Gradient_bez_nazwy_50-39);
      }

      .cls-12 {
        fill: url(#Gradient_bez_nazwy_50-64);
      }

      .cls-13 {
        fill: url(#Gradient_bez_nazwy_50-68);
      }

      .cls-14 {
        fill: url(#Gradient_bez_nazwy_50-60);
      }

      .cls-15 {
        fill: url(#Gradient_bez_nazwy_50-18);
      }

      .cls-16 {
        fill: url(#Gradient_bez_nazwy_50-4);
      }

      .cls-17 {
        fill: url(#Gradient_bez_nazwy_50-65);
      }

      .cls-18 {
        fill: url(#Gradient_bez_nazwy_50-5);
      }

      .cls-19 {
        fill: url(#Gradient_bez_nazwy_50-48);
      }

      .cls-20 {
        fill: url(#Gradient_bez_nazwy_50-82);
      }

      .cls-21 {
        fill: url(#Gradient_bez_nazwy_50-80);
      }

      .cls-22 {
        fill: url(#Gradient_bez_nazwy_50-33);
      }

      .cls-23 {
        fill: url(#Gradient_bez_nazwy_50-31);
      }

      .cls-24 {
        fill: url(#Gradient_bez_nazwy_50-27);
      }

      .cls-25 {
        fill: url(#Gradient_bez_nazwy_50-11);
      }

      .cls-26 {
        fill: url(#Gradient_bez_nazwy_50-59);
      }

      .cls-27 {
        fill: url(#Gradient_bez_nazwy_50);
      }

      .cls-28 {
        fill: url(#Gradient_bez_nazwy_50-72);
      }

      .cls-29 {
        fill: url(#Gradient_bez_nazwy_50-61);
      }

      .cls-30 {
        fill: url(#Gradient_bez_nazwy_50-88);
      }

      .cls-31 {
        fill: url(#Gradient_bez_nazwy_50-86);
      }

      .cls-32 {
        fill: url(#Gradient_bez_nazwy_50-55);
      }

      .cls-33 {
        fill: url(#Gradient_bez_nazwy_50-43);
      }

      .cls-34 {
        fill: url(#Gradient_bez_nazwy_50-21);
      }

      .cls-35 {
        fill: url(#Gradient_bez_nazwy_50-41);
      }

      .cls-36 {
        fill: url(#Gradient_bez_nazwy_50-52);
      }

      .cls-37 {
        fill: url(#Gradient_bez_nazwy_50-78);
      }

      .cls-38 {
        fill: url(#Gradient_bez_nazwy_50-19);
      }

      .cls-39 {
        fill: url(#Gradient_bez_nazwy_50-10);
      }

      .cls-40 {
        fill: url(#Gradient_bez_nazwy_50-26);
      }

      .cls-41 {
        fill: url(#Gradient_bez_nazwy_50-13);
      }

      .cls-42 {
        fill: url(#Gradient_bez_nazwy_50-71);
      }

      .cls-43 {
        fill: url(#Gradient_bez_nazwy_50-90);
      }

      .cls-44 {
        fill: url(#Gradient_bez_nazwy_50-25);
      }

      .cls-45 {
        fill: url(#Gradient_bez_nazwy_50-34);
      }

      .cls-46 {
        fill: url(#Gradient_bez_nazwy_50-69);
      }

      .cls-47 {
        fill: url(#Gradient_bez_nazwy_50-14);
      }

      .cls-48 {
        fill: url(#Gradient_bez_nazwy_50-12);
      }

      .cls-49 {
        fill: url(#Gradient_bez_nazwy_50-28);
      }

      .cls-50 {
        fill: url(#Gradient_bez_nazwy_50-20);
      }

      .cls-51 {
        fill: url(#Gradient_bez_nazwy_50-42);
      }

      .cls-52 {
        fill: url(#Gradient_bez_nazwy_50-44);
      }

      .cls-53 {
        fill: url(#Gradient_bez_nazwy_50-46);
      }

      .cls-54 {
        fill: url(#Gradient_bez_nazwy_50-63);
      }

      .cls-55 {
        fill: url(#Gradient_bez_nazwy_50-15);
      }

      .cls-56 {
        fill: url(#Gradient_bez_nazwy_50-37);
      }

      .cls-57 {
        fill: url(#Gradient_bez_nazwy_50-32);
      }

      .cls-58 {
        fill: url(#Gradient_bez_nazwy_50-62);
      }

      .cls-59 {
        fill: url(#Gradient_bez_nazwy_50-16);
      }

      .cls-60 {
        fill: url(#Gradient_bez_nazwy_50-22);
      }

      .cls-61 {
        fill: url(#Gradient_bez_nazwy_50-77);
      }

      .cls-62 {
        fill: url(#Gradient_bez_nazwy_50-79);
      }

      .cls-63 {
        fill: url(#Gradient_bez_nazwy_50-50);
      }

      .cls-64 {
        fill: url(#Gradient_bez_nazwy_50-67);
      }

      .cls-65 {
        fill: url(#Gradient_bez_nazwy_50-58);
      }

      .cls-66 {
        fill: url(#Gradient_bez_nazwy_50-83);
      }

      .cls-67 {
        fill: url(#Gradient_bez_nazwy_50-36);
      }

      .cls-68 {
        fill: url(#Gradient_bez_nazwy_50-47);
      }

      .cls-69 {
        fill: url(#Gradient_bez_nazwy_50-17);
      }

      .cls-70 {
        fill: url(#Gradient_bez_nazwy_50-8);
      }

      .cls-71 {
        fill: url(#Gradient_bez_nazwy_50-7);
      }

      .cls-72 {
        fill: url(#Gradient_bez_nazwy_50-45);
      }

      .cls-73 {
        fill: url(#Gradient_bez_nazwy_50-29);
      }

      .cls-74 {
        fill: url(#Gradient_bez_nazwy_50-57);
      }

      .cls-75 {
        fill: url(#Gradient_bez_nazwy_50-89);
      }

      .cls-76 {
        fill: url(#Gradient_bez_nazwy_50-70);
      }

      .cls-77 {
        fill: url(#Gradient_bez_nazwy_50-35);
      }

      .cls-78 {
        fill: url(#Gradient_bez_nazwy_50-87);
      }

      .cls-79 {
        fill: url(#Gradient_bez_nazwy_50-76);
      }

      .cls-80 {
        fill: url(#Gradient_bez_nazwy_50-38);
      }

      .cls-81 {
        fill: url(#Gradient_bez_nazwy_50-6);
      }

      .cls-82 {
        fill: url(#Gradient_bez_nazwy_50-23);
      }

      .cls-83 {
        fill: url(#Gradient_bez_nazwy_50-30);
      }

      .cls-84 {
        fill: url(#Gradient_bez_nazwy_50-9);
      }

      .cls-85 {
        fill: url(#Gradient_bez_nazwy_50-56);
      }

      .cls-86 {
        fill: url(#Gradient_bez_nazwy_50-85);
      }

      .cls-87 {
        fill: url(#Gradient_bez_nazwy_50-49);
      }

      .cls-88 {
        fill: url(#Gradient_bez_nazwy_50-73);
      }

      .cls-89 {
        opacity: .7;
      }

      .cls-90 {
        fill: url(#Gradient_bez_nazwy_50-53);
      }

      .cls-91 {
        fill: url(#Gradient_bez_nazwy_50-51);
      }
    </style>
    <linearGradient id="Gradient_bez_nazwy_50" data-name="Gradient bez nazwy 50" x1="1085.72" y1="160.1" x2="1085.72" y2="0" gradientTransform="translate(1446.01) rotate(-180) scale(1 -1)" gradientUnits="userSpaceOnUse">
      <stop offset="0" stop-color="#5c3689"/>
      <stop offset="1" stop-color="#3468c4"/>
    </linearGradient>
    <linearGradient id="Gradient_bez_nazwy_50-2" data-name="Gradient bez nazwy 50" x1="967.26" y1="28.83" x2="967.26" y2="22.52" xlink:href="#Gradient_bez_nazwy_50"/>
    <linearGradient id="Gradient_bez_nazwy_50-3" data-name="Gradient bez nazwy 50" x1="1139.65" y1="62.62" x2="1139.65" y2="55.44" xlink:href="#Gradient_bez_nazwy_50"/>
    <linearGradient id="Gradient_bez_nazwy_50-4" data-name="Gradient bez nazwy 50" x1="1115.72" y1="60.96" x2="1115.72" y2="54.73" xlink:href="#Gradient_bez_nazwy_50"/>
    <linearGradient id="Gradient_bez_nazwy_50-5" data-name="Gradient bez nazwy 50" x1="999.73" y1="70.91" x2="999.73" y2="66.31" xlink:href="#Gradient_bez_nazwy_50"/>
    <linearGradient id="Gradient_bez_nazwy_50-6" data-name="Gradient bez nazwy 50" x1="1040.32" y1="42.24" x2="1040.32" y2="35.85" xlink:href="#Gradient_bez_nazwy_50"/>
    <linearGradient id="Gradient_bez_nazwy_50-7" data-name="Gradient bez nazwy 50" x1="1167.63" y1="50.74" x2="1167.63" y2="46.52" xlink:href="#Gradient_bez_nazwy_50"/>
    <linearGradient id="Gradient_bez_nazwy_50-8" data-name="Gradient bez nazwy 50" x1="1054.96" y1="55.16" x2="1054.96" y2="50.97" xlink:href="#Gradient_bez_nazwy_50"/>
    <linearGradient id="Gradient_bez_nazwy_50-9" data-name="Gradient bez nazwy 50" x1="1063.55" y1="41.95" x2="1063.55" y2="37.49" xlink:href="#Gradient_bez_nazwy_50"/>
    <linearGradient id="Gradient_bez_nazwy_50-10" data-name="Gradient bez nazwy 50" x1="1081.58" y1="31.53" x2="1081.58" y2="29.45" xlink:href="#Gradient_bez_nazwy_50"/>
    <linearGradient id="Gradient_bez_nazwy_50-11" data-name="Gradient bez nazwy 50" x1="1053.63" y1="34.53" x2="1053.63" y2="32.3" xlink:href="#Gradient_bez_nazwy_50"/>
    <linearGradient id="Gradient_bez_nazwy_50-12" data-name="Gradient bez nazwy 50" x1="1150.86" y1="61.63" x2="1150.86" y2="59.78" xlink:href="#Gradient_bez_nazwy_50"/>
    <linearGradient id="Gradient_bez_nazwy_50-13" data-name="Gradient bez nazwy 50" x1="1143.8" y1="52.6" x2="1143.8" y2="50.75" xlink:href="#Gradient_bez_nazwy_50"/>
    <linearGradient id="Gradient_bez_nazwy_50-14" data-name="Gradient bez nazwy 50" x1="1097.2" y1="58.52" x2="1097.2" y2="56.77" xlink:href="#Gradient_bez_nazwy_50"/>
    <linearGradient id="Gradient_bez_nazwy_50-15" data-name="Gradient bez nazwy 50" x1="1017.13" y1="69.76" x2="1017.13" y2="67.8" xlink:href="#Gradient_bez_nazwy_50"/>
    <linearGradient id="Gradient_bez_nazwy_50-16" data-name="Gradient bez nazwy 50" x1="1197.1" y1="53.33" x2="1197.1" y2="51.98" xlink:href="#Gradient_bez_nazwy_50"/>
    <linearGradient id="Gradient_bez_nazwy_50-17" data-name="Gradient bez nazwy 50" x1="1097.26" y1="34.95" x2="1097.26" y2="32.56" xlink:href="#Gradient_bez_nazwy_50"/>
    <linearGradient id="Gradient_bez_nazwy_50-18" data-name="Gradient bez nazwy 50" x1="1022.46" y1="69.04" x2="1022.46" y2="67.05" xlink:href="#Gradient_bez_nazwy_50"/>
    <linearGradient id="Gradient_bez_nazwy_50-19" data-name="Gradient bez nazwy 50" x1="1070.35" y1="68.19" x2="1070.35" y2="66.09" xlink:href="#Gradient_bez_nazwy_50"/>
    <linearGradient id="Gradient_bez_nazwy_50-20" data-name="Gradient bez nazwy 50" x1="1069.1" y1="39.7" x2="1069.1" y2="38.07" xlink:href="#Gradient_bez_nazwy_50"/>
    <linearGradient id="Gradient_bez_nazwy_50-21" data-name="Gradient bez nazwy 50" x1="1136.19" y1="54.1" x2="1136.19" y2="52.61" xlink:href="#Gradient_bez_nazwy_50"/>
    <linearGradient id="Gradient_bez_nazwy_50-22" data-name="Gradient bez nazwy 50" x1="1026.58" y1="68.31" x2="1026.58" y2="67.56" xlink:href="#Gradient_bez_nazwy_50"/>
    <linearGradient id="Gradient_bez_nazwy_50-23" data-name="Gradient bez nazwy 50" x1="1070.73" y1="40.23" x2="1070.73" y2="38.59" xlink:href="#Gradient_bez_nazwy_50"/>
    <linearGradient id="Gradient_bez_nazwy_50-24" data-name="Gradient bez nazwy 50" x1="1126.79" y1="57.91" x2="1126.79" y2="57.04" xlink:href="#Gradient_bez_nazwy_50"/>
    <linearGradient id="Gradient_bez_nazwy_50-25" data-name="Gradient bez nazwy 50" x1="1189.53" y1="41.5" x2="1189.53" y2="40.71" xlink:href="#Gradient_bez_nazwy_50"/>
    <linearGradient id="Gradient_bez_nazwy_50-26" data-name="Gradient bez nazwy 50" x1="1115.81" y1="73.01" x2="1115.81" y2="72.36" xlink:href="#Gradient_bez_nazwy_50"/>
    <linearGradient id="Gradient_bez_nazwy_50-27" data-name="Gradient bez nazwy 50" x1="1097.09" y1="75.24" x2="1097.09" y2="74.36" xlink:href="#Gradient_bez_nazwy_50"/>
    <linearGradient id="Gradient_bez_nazwy_50-28" data-name="Gradient bez nazwy 50" x1="993.16" y1="73.5" x2="993.16" y2="73" xlink:href="#Gradient_bez_nazwy_50"/>
    <linearGradient id="Gradient_bez_nazwy_50-29" data-name="Gradient bez nazwy 50" x1="1163.48" y1="50.23" x2="1163.48" y2="49.37" xlink:href="#Gradient_bez_nazwy_50"/>
    <linearGradient id="Gradient_bez_nazwy_50-30" data-name="Gradient bez nazwy 50" x1="1140.03" y1="41.23" x2="1140.03" y2="40.56" xlink:href="#Gradient_bez_nazwy_50"/>
    <linearGradient id="Gradient_bez_nazwy_50-31" data-name="Gradient bez nazwy 50" x1="1094.4" y1="57.78" x2="1094.4" y2="56.94" xlink:href="#Gradient_bez_nazwy_50"/>
    <linearGradient id="Gradient_bez_nazwy_50-32" data-name="Gradient bez nazwy 50" x1="1204.05" y1="38.74" x2="1204.05" y2="38.16" xlink:href="#Gradient_bez_nazwy_50"/>
    <linearGradient id="Gradient_bez_nazwy_50-33" data-name="Gradient bez nazwy 50" x1="1001.45" y1="58.27" x2="1001.45" y2="57.52" xlink:href="#Gradient_bez_nazwy_50"/>
    <linearGradient id="Gradient_bez_nazwy_50-34" data-name="Gradient bez nazwy 50" x1="1049.64" y1="31.41" x2="1049.64" y2="30.81" xlink:href="#Gradient_bez_nazwy_50"/>
    <linearGradient id="Gradient_bez_nazwy_50-35" data-name="Gradient bez nazwy 50" x1="1151.29" y1="58.41" x2="1151.29" y2="57.76" xlink:href="#Gradient_bez_nazwy_50"/>
    <linearGradient id="Gradient_bez_nazwy_50-36" data-name="Gradient bez nazwy 50" x1="1099.25" y1="33.15" x2="1099.25" y2="32.4" xlink:href="#Gradient_bez_nazwy_50"/>
    <linearGradient id="Gradient_bez_nazwy_50-37" data-name="Gradient bez nazwy 50" x1="1098.76" y1="56.54" x2="1098.76" y2="55.79" xlink:href="#Gradient_bez_nazwy_50"/>
    <linearGradient id="Gradient_bez_nazwy_50-38" data-name="Gradient bez nazwy 50" x1="1038.35" y1="19.55" x2="1038.35" y2="18.68" xlink:href="#Gradient_bez_nazwy_50"/>
    <linearGradient id="Gradient_bez_nazwy_50-39" data-name="Gradient bez nazwy 50" x1="1089.55" y1="30.61" x2="1089.55" y2="30.03" xlink:href="#Gradient_bez_nazwy_50"/>
    <linearGradient id="Gradient_bez_nazwy_50-40" data-name="Gradient bez nazwy 50" x1="974.35" y1="31.54" x2="974.35" y2="29.57" xlink:href="#Gradient_bez_nazwy_50"/>
    <linearGradient id="Gradient_bez_nazwy_50-41" data-name="Gradient bez nazwy 50" x1="972" y1="32.09" x2="972" y2="30.17" xlink:href="#Gradient_bez_nazwy_50"/>
    <linearGradient id="Gradient_bez_nazwy_50-42" data-name="Gradient bez nazwy 50" x1="974.33" y1="73.49" x2="974.33" y2="72.01" xlink:href="#Gradient_bez_nazwy_50"/>
    <linearGradient id="Gradient_bez_nazwy_50-43" data-name="Gradient bez nazwy 50" x1="971.61" y1="30.31" x2="971.61" y2="29.35" xlink:href="#Gradient_bez_nazwy_50"/>
    <linearGradient id="Gradient_bez_nazwy_50-44" data-name="Gradient bez nazwy 50" x1="1174.41" y1="32.3" x2="1174.41" y2="31.8" xlink:href="#Gradient_bez_nazwy_50"/>
    <linearGradient id="Gradient_bez_nazwy_50-45" data-name="Gradient bez nazwy 50" x1="1120.73" y1="82.9" x2="1120.73" y2="81.66" xlink:href="#Gradient_bez_nazwy_50"/>
    <linearGradient id="Gradient_bez_nazwy_50-46" data-name="Gradient bez nazwy 50" x1="120.08" y1="160.1" x2="120.08" y2="0" gradientTransform="matrix(1,0,0,1,0,0)" xlink:href="#Gradient_bez_nazwy_50"/>
    <linearGradient id="Gradient_bez_nazwy_50-47" data-name="Gradient bez nazwy 50" x1="1.63" y1="28.83" x2="1.63" y2="22.52" gradientTransform="matrix(1,0,0,1,0,0)" xlink:href="#Gradient_bez_nazwy_50"/>
    <linearGradient id="Gradient_bez_nazwy_50-48" data-name="Gradient bez nazwy 50" x1="174.02" y1="62.62" x2="174.02" y2="55.44" gradientTransform="matrix(1,0,0,1,0,0)" xlink:href="#Gradient_bez_nazwy_50"/>
    <linearGradient id="Gradient_bez_nazwy_50-49" data-name="Gradient bez nazwy 50" x1="150.09" y1="60.96" x2="150.09" y2="54.73" gradientTransform="matrix(1,0,0,1,0,0)" xlink:href="#Gradient_bez_nazwy_50"/>
    <linearGradient id="Gradient_bez_nazwy_50-50" data-name="Gradient bez nazwy 50" x1="34.1" y1="70.91" x2="34.1" y2="66.31" gradientTransform="matrix(1,0,0,1,0,0)" xlink:href="#Gradient_bez_nazwy_50"/>
    <linearGradient id="Gradient_bez_nazwy_50-51" data-name="Gradient bez nazwy 50" x1="74.69" y1="42.24" x2="74.69" y2="35.85" gradientTransform="matrix(1,0,0,1,0,0)" xlink:href="#Gradient_bez_nazwy_50"/>
    <linearGradient id="Gradient_bez_nazwy_50-52" data-name="Gradient bez nazwy 50" x1="202" y1="50.74" x2="202" y2="46.52" gradientTransform="matrix(1,0,0,1,0,0)" xlink:href="#Gradient_bez_nazwy_50"/>
    <linearGradient id="Gradient_bez_nazwy_50-53" data-name="Gradient bez nazwy 50" x1="89.33" y1="55.16" x2="89.33" y2="50.97" gradientTransform="matrix(1,0,0,1,0,0)" xlink:href="#Gradient_bez_nazwy_50"/>
    <linearGradient id="Gradient_bez_nazwy_50-54" data-name="Gradient bez nazwy 50" x1="97.92" y1="41.95" x2="97.92" y2="37.49" gradientTransform="matrix(1,0,0,1,0,0)" xlink:href="#Gradient_bez_nazwy_50"/>
    <linearGradient id="Gradient_bez_nazwy_50-55" data-name="Gradient bez nazwy 50" x1="115.95" y1="31.53" x2="115.95" y2="29.45" gradientTransform="matrix(1,0,0,1,0,0)" xlink:href="#Gradient_bez_nazwy_50"/>
    <linearGradient id="Gradient_bez_nazwy_50-56" data-name="Gradient bez nazwy 50" x1="88" y1="34.53" x2="88" y2="32.3" gradientTransform="matrix(1,0,0,1,0,0)" xlink:href="#Gradient_bez_nazwy_50"/>
    <linearGradient id="Gradient_bez_nazwy_50-57" data-name="Gradient bez nazwy 50" x1="185.23" y1="61.63" x2="185.23" y2="59.78" gradientTransform="matrix(1,0,0,1,0,0)" xlink:href="#Gradient_bez_nazwy_50"/>
    <linearGradient id="Gradient_bez_nazwy_50-58" data-name="Gradient bez nazwy 50" x1="178.16" y1="52.6" x2="178.16" y2="50.75" gradientTransform="matrix(1,0,0,1,0,0)" xlink:href="#Gradient_bez_nazwy_50"/>
    <linearGradient id="Gradient_bez_nazwy_50-59" data-name="Gradient bez nazwy 50" x1="131.57" y1="58.52" x2="131.57" y2="56.77" gradientTransform="matrix(1,0,0,1,0,0)" xlink:href="#Gradient_bez_nazwy_50"/>
    <linearGradient id="Gradient_bez_nazwy_50-60" data-name="Gradient bez nazwy 50" x1="51.5" y1="69.76" x2="51.5" y2="67.8" gradientTransform="matrix(1,0,0,1,0,0)" xlink:href="#Gradient_bez_nazwy_50"/>
    <linearGradient id="Gradient_bez_nazwy_50-61" data-name="Gradient bez nazwy 50" x1="231.46" y1="53.33" x2="231.46" y2="51.98" gradientTransform="matrix(1,0,0,1,0,0)" xlink:href="#Gradient_bez_nazwy_50"/>
    <linearGradient id="Gradient_bez_nazwy_50-62" data-name="Gradient bez nazwy 50" x1="131.62" y1="34.95" x2="131.62" y2="32.56" gradientTransform="matrix(1,0,0,1,0,0)" xlink:href="#Gradient_bez_nazwy_50"/>
    <linearGradient id="Gradient_bez_nazwy_50-63" data-name="Gradient bez nazwy 50" x1="56.83" y1="69.04" x2="56.83" y2="67.05" gradientTransform="matrix(1,0,0,1,0,0)" xlink:href="#Gradient_bez_nazwy_50"/>
    <linearGradient id="Gradient_bez_nazwy_50-64" data-name="Gradient bez nazwy 50" x1="104.71" y1="68.19" x2="104.71" y2="66.09" gradientTransform="matrix(1,0,0,1,0,0)" xlink:href="#Gradient_bez_nazwy_50"/>
    <linearGradient id="Gradient_bez_nazwy_50-65" data-name="Gradient bez nazwy 50" x1="103.47" y1="39.7" x2="103.47" y2="38.07" gradientTransform="matrix(1,0,0,1,0,0)" xlink:href="#Gradient_bez_nazwy_50"/>
    <linearGradient id="Gradient_bez_nazwy_50-66" data-name="Gradient bez nazwy 50" x1="170.56" y1="54.1" x2="170.56" y2="52.61" gradientTransform="matrix(1,0,0,1,0,0)" xlink:href="#Gradient_bez_nazwy_50"/>
    <linearGradient id="Gradient_bez_nazwy_50-67" data-name="Gradient bez nazwy 50" x1="60.95" y1="68.31" x2="60.95" y2="67.56" gradientTransform="matrix(1,0,0,1,0,0)" xlink:href="#Gradient_bez_nazwy_50"/>
    <linearGradient id="Gradient_bez_nazwy_50-68" data-name="Gradient bez nazwy 50" x1="105.09" y1="40.23" x2="105.09" y2="38.59" gradientTransform="matrix(1,0,0,1,0,0)" xlink:href="#Gradient_bez_nazwy_50"/>
    <linearGradient id="Gradient_bez_nazwy_50-69" data-name="Gradient bez nazwy 50" x1="161.16" y1="57.91" x2="161.16" y2="57.04" gradientTransform="matrix(1,0,0,1,0,0)" xlink:href="#Gradient_bez_nazwy_50"/>
    <linearGradient id="Gradient_bez_nazwy_50-70" data-name="Gradient bez nazwy 50" x1="223.9" y1="41.5" x2="223.9" y2="40.71" gradientTransform="matrix(1,0,0,1,0,0)" xlink:href="#Gradient_bez_nazwy_50"/>
    <linearGradient id="Gradient_bez_nazwy_50-71" data-name="Gradient bez nazwy 50" x1="150.17" y1="73.01" x2="150.17" y2="72.36" gradientTransform="matrix(1,0,0,1,0,0)" xlink:href="#Gradient_bez_nazwy_50"/>
    <linearGradient id="Gradient_bez_nazwy_50-72" data-name="Gradient bez nazwy 50" x1="131.46" y1="75.24" x2="131.46" y2="74.36" gradientTransform="matrix(1,0,0,1,0,0)" xlink:href="#Gradient_bez_nazwy_50"/>
    <linearGradient id="Gradient_bez_nazwy_50-73" data-name="Gradient bez nazwy 50" x1="27.52" y1="73.5" x2="27.52" y2="73" gradientTransform="matrix(1,0,0,1,0,0)" xlink:href="#Gradient_bez_nazwy_50"/>
    <linearGradient id="Gradient_bez_nazwy_50-74" data-name="Gradient bez nazwy 50" x1="197.84" y1="50.23" x2="197.84" y2="49.37" gradientTransform="matrix(1,0,0,1,0,0)" xlink:href="#Gradient_bez_nazwy_50"/>
    <linearGradient id="Gradient_bez_nazwy_50-75" data-name="Gradient bez nazwy 50" x1="174.4" y1="41.23" x2="174.4" y2="40.56" gradientTransform="matrix(1,0,0,1,0,0)" xlink:href="#Gradient_bez_nazwy_50"/>
    <linearGradient id="Gradient_bez_nazwy_50-76" data-name="Gradient bez nazwy 50" x1="128.77" y1="57.78" x2="128.77" y2="56.94" gradientTransform="matrix(1,0,0,1,0,0)" xlink:href="#Gradient_bez_nazwy_50"/>
    <linearGradient id="Gradient_bez_nazwy_50-77" data-name="Gradient bez nazwy 50" x1="238.41" y1="38.74" x2="238.41" y2="38.16" gradientTransform="matrix(1,0,0,1,0,0)" xlink:href="#Gradient_bez_nazwy_50"/>
    <linearGradient id="Gradient_bez_nazwy_50-78" data-name="Gradient bez nazwy 50" x1="35.82" y1="58.27" x2="35.82" y2="57.52" gradientTransform="matrix(1,0,0,1,0,0)" xlink:href="#Gradient_bez_nazwy_50"/>
    <linearGradient id="Gradient_bez_nazwy_50-79" data-name="Gradient bez nazwy 50" x1="84.01" y1="31.41" x2="84.01" y2="30.81" gradientTransform="matrix(1,0,0,1,0,0)" xlink:href="#Gradient_bez_nazwy_50"/>
    <linearGradient id="Gradient_bez_nazwy_50-80" data-name="Gradient bez nazwy 50" x1="185.66" y1="58.41" x2="185.66" y2="57.76" gradientTransform="matrix(1,0,0,1,0,0)" xlink:href="#Gradient_bez_nazwy_50"/>
    <linearGradient id="Gradient_bez_nazwy_50-81" data-name="Gradient bez nazwy 50" x1="133.61" y1="33.15" x2="133.61" y2="32.4" gradientTransform="matrix(1,0,0,1,0,0)" xlink:href="#Gradient_bez_nazwy_50"/>
    <linearGradient id="Gradient_bez_nazwy_50-82" data-name="Gradient bez nazwy 50" x1="133.13" y1="56.54" x2="133.13" y2="55.79" gradientTransform="matrix(1,0,0,1,0,0)" xlink:href="#Gradient_bez_nazwy_50"/>
    <linearGradient id="Gradient_bez_nazwy_50-83" data-name="Gradient bez nazwy 50" x1="72.71" y1="19.55" x2="72.71" y2="18.68" gradientTransform="matrix(1,0,0,1,0,0)" xlink:href="#Gradient_bez_nazwy_50"/>
    <linearGradient id="Gradient_bez_nazwy_50-84" data-name="Gradient bez nazwy 50" x1="123.91" y1="30.61" x2="123.91" y2="30.03" gradientTransform="matrix(1,0,0,1,0,0)" xlink:href="#Gradient_bez_nazwy_50"/>
    <linearGradient id="Gradient_bez_nazwy_50-85" data-name="Gradient bez nazwy 50" x1="8.72" y1="31.54" x2="8.72" y2="29.57" gradientTransform="matrix(1,0,0,1,0,0)" xlink:href="#Gradient_bez_nazwy_50"/>
    <linearGradient id="Gradient_bez_nazwy_50-86" data-name="Gradient bez nazwy 50" x1="6.36" y1="32.09" x2="6.36" y2="30.17" gradientTransform="matrix(1,0,0,1,0,0)" xlink:href="#Gradient_bez_nazwy_50"/>
    <linearGradient id="Gradient_bez_nazwy_50-87" data-name="Gradient bez nazwy 50" x1="8.7" y1="73.49" x2="8.7" y2="72.01" gradientTransform="matrix(1,0,0,1,0,0)" xlink:href="#Gradient_bez_nazwy_50"/>
    <linearGradient id="Gradient_bez_nazwy_50-88" data-name="Gradient bez nazwy 50" x1="5.97" y1="30.31" x2="5.97" y2="29.35" gradientTransform="matrix(1,0,0,1,0,0)" xlink:href="#Gradient_bez_nazwy_50"/>
    <linearGradient id="Gradient_bez_nazwy_50-89" data-name="Gradient bez nazwy 50" x1="208.77" y1="32.3" x2="208.77" y2="31.8" gradientTransform="matrix(1,0,0,1,0,0)" xlink:href="#Gradient_bez_nazwy_50"/>
    <linearGradient id="Gradient_bez_nazwy_50-90" data-name="Gradient bez nazwy 50" x1="155.1" y1="82.9" x2="155.1" y2="81.66" gradientTransform="matrix(1,0,0,1,0,0)" xlink:href="#Gradient_bez_nazwy_50"/>
  </defs>
  <g class="cls-89">
    <path class="cls-27" d="M480.37,0v3.09c-.44.01-.85.26-1.29.25-.13,0-1.34-.21-1.46-.25-.16-.05-.09-.33-.4-.38-.7-.11-1.72-.08-2.47-.12-.51-.02-1.33-.44-1.54.3.45.82,1.35.12,1.76.22.25.06.68.87,1.02.48.25-.29.04-.62.72-.61.14,0,.72.12.82.18.14.09.14.35.33.41.58.19,1.86.19,2.52.27v.74c-.88.21-1.46.59-2.42.5-.58-.06-.6-.31-1.02-.46-.74-.28-1.3,0-2,.22l.12.86h-.49c0-.24.08-.63-.2-.72-1.04.1-2.07-.67-2.93.09l-.52-.35-.39.63c-.9-.15-1.77-.15-2.67-.3-.23-.04-.87-.11-.97-.13-.3-.08-.45-.45-.94-.56-.67-.16-2.01.27-2.29-.06-.47-.56.71-.76.63-1.12-.23-.27-.78-.47-1.06-.19-.31,1.48-1.05.85-2.08.91-1.25.07-2.46.28-3.85.33-.3,0-.63.2-.87.19s-.56-.31-.87-.3c-.21,0-.44.21-.74.24-.5.05-.99-.16-1.59-.12-.75.06-1.5.33-1.42,1.21.32.06.61.34.92.38.4.05.69-.13.97-.12,2.97.19,6.26.04,9.14.38.8.09,2.1.53,2.86.48.37-.02.51-.42.98-.37.31.03.49.32.76.37.6.1,2.01-.63,1.71.63-.31.22-2.06.11-2.56.23-.12.03-.17.38-.45.44-.77-.55-1.3.04-2.08.15-.2.03-.42-.13-.57-.08-.14.04-.15.28-.29.36-.07.04-1.36.34-1.48.34-.38.02-1.34-.38-1.4.35-.02.26.24.43.27.73.09,1.19-1.16.68-1.81.67-.35,0-.7.17-.98.14-.24-.03-.38-.26-.56-.32-.21-.07-1.67.23-1.9.35-.32.16-.35.51-.66.7-.99.63-2.24.45-3.32.51-1.2.07-2.11.13-3.33,0-.3-.03-.55-.25-.87-.24-.21,0-1.09.33-1.28.46-.32.21-.36.59-.72.65-.55.1-.85-.45-1.5-.49-.21-.01-1.03.07-1.2.13-.24.09-.22,1.04-1.02,1.09-.89.06-.82-1.08-1.25-1.21-.59-.18-1.54.17-2.2-.03l-.31.31c.36,1.26.8.27,1.16.33.19.04.58.53.44.72-.55.44-.86,0-1.17.01-.18,0-.33.25-.62.26-.32,0-.92-.36-1.38-.37-.53-.01-1.3.23-1.84.25-.79.03-2.11-.32-2.83-.12-.42.12.2.61.15,1-.15,1.08-1.97.08-1.03-.65.34-.6-2.05-.43-2.04-.19.21.23.56.21.75.49.18.26.18.81.4,1.02.04.04.79.57.83.59.25.11.67,0,.81.18l-.14.99c.1.19.82.58,1.02.78.13.14.15.45.34.59.35.26,1.41.24,1.84.39.23.08.3.32.47.4.22.1.47.03.69.18.07.05,1.12,1.25,1.14,1.33.14.47.1,1.19.17,1.56.04.21.49.66.41,1.08l.14.11c.34-.14.83-.12,1.11.13.17.15.17.43.3.57.18.19.41.28.55.44.33.38.58,1.08,1.19,1.29.38.13.75-.12,1.17-.07.36.04,1.21.19,1.6.26.32.06.44.42.88.49s.93-.17,1.2-.1.66.77,1.2.91c.72.19,1.88.25,2.65.42.36,1.02,1.76.88,2.67,1.01l.19.61c.82-1.04,2.23.09,3.07-.11.12-.03.19-.54.53-.73,1.21-.68,1.26.4,1.62.61.2.12.62.07.73.23s-.02.44.18.69c.15.19.77.47,1.04.44.25-.05.28-1.25.08-1.49h.37c.25,2.54.14,5.07.25,7.61,0,.15-.09.46.12.43v-2.35c.29-.02.22-.04.25.18.07.59-.02,1.37,0,1.99,0,.26.13.5.13.74,0,.46-.52,1.67.36,1.49.57-.12.05-1.4.01-1.86-.04-.42-.18-1.69.37-1.67v2.23s.12,0,.12,0v-7.61c0-.3-.05-.63-.12-.93h.37c-.19.98.08,2.14.13,3.15.04.69.03,5.11.26,5.25l.6.02v-2.35c.29-.02.22-.04.25.18.13,1.05.07,2.18.12,3.22.03.58.29,1.11.02,1.72l.19.18.66.02.25,9.53h1.11s.25,12.99.25,12.99l1.61.12.25,15.47.99-.07c.27.18-.05.53,0,.73.09.34,1.98.24,2.34.08v.49s.25-.37.25-.37c.33-.12.19.21.33.25.27.07,1.16-.08,1.28,0l-.13.25h.37s-.12-.62-.12-.62l.5-.07-.25-9.46c.43.21.84-.11,1.05-.13.06,0,.43.75.87-.12l.19.37.14-.23.23.11-.25-9.08.45-.19-.08-.81.37-.07v-.74s.99-.02.99-.02l.21-1.36c.96-.26,1.92-.14,2.9-.11l-.12,1.48.62-.37v101.46h-240.15v-78.44h1.86s0-.12,0-.12h-1.86v-2.23l1.11-.06-1.11-.06v-7.55s.87-.06.87-.06l-.87-.06v-12.25s1.48.12,1.48.12v-.62c.49-.06,2.4-.2,2.7.15.07.08,0,.28.02.34,0,.02.25-.13.42-.12.6.04.96.15,1.42.35,1.68.74,2.72-.39,4.42-.24l10.57.87v2.04s-.19.14-.12.18c1.22-.04.88,0,.86.8-.09,4.11-.07,8.27-.12,12.37-.02,1.94-.07,4.02,0,5.95,0,.15-.09.46.12.43v-5.38c0-.08.41-.2.48-.39.13-.39-.11-1.23.39-1.53v6.68c.22.03.12-.28.12-.43.11-2.65-.05-5.39,0-8.05.12-7.86.33-15.76.51-23.62.03-1.18-.03-2.36,0-3.53-.22-.03-.12.28-.12.43-.01.37,0,.74,0,1.1-1.02.34-.07.42,0,.66.33,1.18-.94,1.14-1.11,1.46s.85.34.99.31v.98s-4.46.07-4.46.07l.13,2.42c-.75-.2-1.48.04-2.16,0-.48-.03-.79-.3-1.13-.37-.47-.08-2.34.18-2.96.25-.42.05-.8.57-1.18-.08l.48-.62c-.13-.62-.76-.34-1.16-.42-1.29-.27-2.62-.45-3.96-.5-.69-.02-1.03.35-1.48.36-.42,0-.93-.38-1.23-.36-.54.05-.14.76-1.12.76-.32,0-1.23-.35-1.05.3.08.29.74.03,1.04.07.27.04.46.24.68.29.56.12,1.16-.04,1.56.57l-.06.31c-.71.27-1.38-.1-2.01.3-.16.1-.12.3-.48.42-.67.22-1.74.26-2.46.33v-3.96s6.31-.68,6.31-.68l-.31-1.3c-.14-.13-1.99-.54-2.2-.47-.19.06-.28.33-.53.36s-.44-.25-.73-.27c-.26-.02-.52.15-.75.14-.6-.02-1.15-.29-1.79,0v-8.54c1.21.02,2.37.27,3.59,0,.02.39-.45.48-.74.5.06.69.96.07,1.53.27.29.1.64,1.21,1.32.05.47-.79-.61-.8-.62-1l.44-.18c-.03-.41-.07-.55.3-.81l-.32-.3-.54.23c-.23-.5-.39-.79-.25-1.36.46-.17.76.45,1.07.48.2.02.59-.58,1.02-.34l.34,1.23c.5-.15,1.13.28,1.48.33.43.06,1.24-.17,1.83-.08.43.07.92.54,1.14.58.17.03.38-.11.59-.09.31.03.61.18.93.13l-.2.48c-.63-.3-.97.11-1.54.26.44.72.91,1.01.25,1.8-.41.49-.58.09-.43,1.05-.87.26-.93,1.16-.26,1.72.83-.65,2.19-.36,3.22-.35.83,0,1.32-.02,2.11-.13.37-.05.65.12.95.09.36-.03.93-.35,1.37-.31,1.81.18,2.31.56,4.34.33.7-.08,1.58.17,2.29,0l-.12.62c.61.1,1.05-.24.99-.87.4.12,1.15-.09,1.56-.22.18-.06.17-.27.24-.27.17,0,.44.2.67.13v-.5c.28.07.25.39.25.62,1.53.11.13-1.46.81-2.23.65-.14-.1,2,.06,2.23l.25-.37c.31.23.37.34.68.02l.31.47.31-.25c.55.78.88.13,1.26.02.26-.07.54.02.81-.05.37-.1.95-.54,1.53-.59,1.35-.11-.07,1.07.05,1.24.32.26,1.12-.2,1.12.31,0,.32-.37.28-.57.43-.18.14-.13.41-.56.44-.11,6.77-.15,13.52-.23,20.29,0,.29-.13.56-.13.86-.04,3.63-.14,7.54,0,11.14,0,.15-.09.46.12.43v-3.16c0-.06.64-.46.73-1.02.07-.46-.95-.94.44-1.38.09.02.45.63.45.67v2.04c.22.03.12-.28.12-.43.1-2.43-.08-4.88,0-7.31.03-1.06.08-2.72.38-3.55.33-.92.61-1.53.92-2.57.41-1.34,2.13-2.94,2.88-4.17l.15-3.5.24,1.67c-.6,2.59,1.97,4.21,2.69,6.34.31.91.48,2.09,1.14,2.84l-.12,7.89.2.29.91.02.11-16.65c.56-.59.07-1.63.31-2.41l1.18-.12c.18-2.05-.24-4.51,0-6.5.03-.23.06-.47.38-.43v6.93s1.49.05,1.49.05l.12,1.06c.35-.06,2.68.1,2.73.33l-.14,16.57,3.97.3.12-.25.13,1.48,1.24-.12-.87-.42-.24-.56,1.48-.13c.02-.16-.02-.34.07-.49.28-.49,3.39-.29,4.03-.43l.86-.87c-1.18-.8-2.31-.49-3.63-.44-.16.56-.82.89-1.38.89l-1.17-.75c.5-.02.97-.22,1.45-.34.58-.15.56-.09,1.15-.34,1.21-.5,4.35.24,5.64.3.6.03,1.52-.53,1.54.54-.52.11-.45.74-.58.84-.44.33-2.2.02-2.77.23-.21.21.72.63.87.62l-.25.43c.61.56,1.58.18,2.28.31.34.07.44.43.64.46.2.03.71-.15,1.04.03.03-.16-.05-.29-.18-.38-.21-.15-.67-.03-.56-.3.56-.37,1.17-.02,1.68.05.79.11,1.04-.1,1.83.4.14.09.17.32.29.35.66.18,2.7.01,3.57.12.33.04.58.26.86.26s.48-.21.75-.25c.39-.06,2.33.23,2.41.55-.27.55-.98.91-1.48,1.25-.1.07-.12.27-.28.34-.56.24-1.47-.23-1.58.45h-.24c-.15-.68-.34-.21-.59-.15-.74.15-1.17.08-1.73.76l-.53-.24.74,1.48c.45-.41,1.05-.21,1.61-.25-.05-1.02-.05-.61.53-.75.1-.02.1-.2.18-.23.44-.16.86-.15,1.32-.14l.14.39,2.53.11.02-6.17c1.31.06,2.6-.36,3.87-.27l.14.39h1.17s0,1.23,0,1.23h1.86s-.12,1.48-.12,1.48c.15-.06.26-.12.43-.13,2.2-.16,4.01-.24,6.19-.12.76.04,1.54-.08,2.29.06.25.14-.18.59-.11.67.03.03.22.04.29.14.19.29.35.52.52.78.1.15.74,1.21.76,1.28.07.29.02.61.02.9l-.18-.74c-.13,0-.02.39-.06.54s-.3,0-.25.2c.92.4,1.05.52.99-.56-.03-.5-.35-1.57-.19-1.91.04-.08,1.3-1.19,1.39-1.21.6-.18,1.29.15,1.89.1l.15-1.7,1.14-.16.07.38.56-.05.26-.46h1.16s-.13.25-.13.25c.25.12.59-.2.68-.2.18,0,.9.28,1.11.33.28.06.07-.38.43-.25-.18.49.61.62.5,0l.25.37c.22.07.29-.18.45-.21.19-.04.61.17.91-.03-.11.33.23.34.26.55.07.55-.14,3.65,0,3.77h1.35s0,2.78,0,2.78l-.25.14c-.02.11.18.02.22.08.06.09.05,1.91,0,2.15-.02.11-.2,0-.23.12-.07.28.21.12.25.27.04.16-.02.37,0,.54l-.37-.06c-.01.22.36.49.37.52.1.44-.06,1.1,0,1.58.02.18.09.38.25.18l.24-3.14.63-.28v-20.75s.99-.21.99-.21v-1.72c.58-.07.69-.08.92-.6l1.54.11.26.61-.37.12c.24.09.52-.1.69-.11.06,0,.03.2.14.23.4.11,2.62.24,2.75.38v8.53c1.61-.53.23,1.63,1.06,1.98,0-.43.45-.62.56-.28.06.2-.17.49.24.41l.12-.57.5-.05c.19.19-.1,2.63,0,3.13,0,.03.46.55.49.25l.06-.16c.09.38.34.24.68.25v-2.23c1.18-.33,2.74-.05,3.86-.38.1-.03.1-.22.18-.24.23-.04.78.17.95.12.09-.03.07-.21.17-.24.26-.06.62.03.91,0l.07-.51c.37.02.78-.22,1.1-.24.57-.03,1.3.02,1.86.01.37,0,.6-.37.98-.13l.07-.25.18.25.06-.37.19.38.85.12.19-.25.2.75,5.37.3c.24-.07.95-1.05,1.2-1.34.29-.35.41-.36.52-.47.08-.09-.04-.39.14-.54.24-.19,1.16-.18,1.49-.18v-.5s1.34-.14,1.34-.14l.02-4.56c.41-.06.9.2,1.06-.25l.3.13.25-.74v.62s.44-.37.44-.37c.21.37.98.66,1.35.68.3.02.91-.2,1.11-.16.16.03.22.26.38.29.34.07,1.1-.02,1.5.06l.3-.26c-.09.38,1.28.56,1.55.56.1,0,.64-.17.66-.21.09-.15-.11-.5.14-.48l.13.62.43-.25c.33.72.88.47,1.55.49l.12,13.3.2.29,1.78.14-.49-.25.38-.19-.06-2.91c-.12-.18-.55.03-.44-.36h2.23s0-.99,0-.99h2.35s0-.37,0-.37c.28-.07.45.2.69.24.42.07.92-.05,1.35.01.8.12.79,1.05-.05.36l-.13.37.59.1.26-.18-.11-7.47c.14-.14,1.52.32,1.49-.37h.12c-.04.38.33.36.43,0l.56.25v-.37s.42.26.42.26l1.93-.13v-.5c.44-.08.89.17,1.3.14.23-.02.16-.24.27-.26.51-.11,1.39-.08,1.94-.12l.2-.25c0,.51,1.09.16,1.51.19.24.02.91.12.85.42h.24s.06-.25.06-.25c.11.27.1.29.43.25l.06-.5.06.49,3.1.45.12,11.18.5-.2v-1.39c.32-.21.73-.08,1.02-.14.1-.02.08-.22.17-.24.33-.08.84.05,1.21-.01l.08.37,1.23.14-.12.37.99.12v-.37s-.62-.06-.62-.06l.62-.06v-1.98s.47.07.59-.33l.02-1.4c.68.06,1.33-.16,2-.18s1.79.25,2.34.37c.41.09,1.84.56,2.15.56.06,0,.08-.24.13-.26.44-.13.26.41.68.37v-7.42c.35-.12.21.28.45.35.2.06.46,0,.67.02v-1.24s.49,0,.49,0l-.12-.49h.31c.16-.24.06-.46.06-.68v-2.97s.17-.19.25-.19v3.65s.16.18.13.31c.34-.09.12-.25.12-.31v-4.52s.25,1.42.25,1.42v3.41s.24-.13.24-.13v.62s1.29-.03,1.29-.03c.23-.55.56-.52,1.06-.72l-.25.37c.09.07.37-.12.37-.18v-3.22s.17-.19.25-.19v3.46s.25,0,.25,0v-4.45s.25,1.42.25,1.42v3.15s.31-.11.31-.11l.62.35.05,1.49.72-.02c.1-.19.12-.4.39-.35l.25,8.41c.74-.28.37.4.49.86-.49-.36-.47.31-.35.67.07.2.33.17.35.2.21.25-.69.3,0,.57.04,1.03-.26,2.35-.13,3.34.02.18.39.28.32.67l.5-.5c.06-.09-.07-.16-.07-.19v-4.52h.49s0-1.86,0-1.86c.42.17.47-.23.67-.26.68-.09,1.78.01,2.48-.05.24-.02,1.16-.55,1.18.06h.25s.06-.25.06-.25l.14.25,3.76.17.12,1.23-.25.14.25.14v6.85s.74,0,.74,0l-.37-.24h.74c.04-.23-.22-.07-.34-.15-.07-.04-.2-.43-.15-.47h1.11s.12-.49.12-.49c-.09.63.39.64.37,1.18l1.92.17.13.88.44.12-.12-18.06,1.61-.12-.25-12.37,1.11-.13-.08-.31.16-.17,1.53-.02-.25-9.4c-.35-.07-.24.13-.25.37l-1.27-.15c-.8-1.16-2.22-1.17-3.33-1.74-.22-.11-.42-.42-.54-.45-.18-.03-.74.43-1.16.11l-.2.87h-.42c-.09-.6.48-1.58,1.08-1.71.7-.16,1.2.34,1.82.22.4-.07.62-.65.9-.73s.53.27.7.22c.15-.04.23-.45.56-.56.09-.03,1.67-.27,1.82-.27.34,0,.64.42,1.03.34v-2.35h.25v2.35s.74,0,.74,0l-.18-5.32c-.71.01-.89.75-1.26.96-.46.26-1.1,0-1.47.27s.39.66-.12,1c-.4.08-.68-1.13-.93-.87.1.73-.77.9-.89,1.59-.5.24-1.1-.3-1.5-.21-.22.05-.55.41-.84.53-.64.26-2.31.53-2.71.88-.74.63-.38.28-1.12.61-.14.06-.24.3-.47.4-.47.22-1.07-.09-1.55.05-.38.11-.33.66-.57.91-.09.09-.92.58-1.04.54-.37-.1-.27-1.15-.7-1.42-.24-.19-.58.1-.78.08-.05,0-.33-.58-.82-.7-.32-.08-.51.07-.67.04-.12-.02-2.13-.9-2.23-.97-.23-.17-.19-.46-.37-.62-.26-.23-.72-.5-1.12-.86-.43-.38-.89-.3-1.12-.48-.4-.31.1-1.38-.1-2-.13-.4-.71-.46-.79-.95-.03-.17.13-.39.05-.53-.06-.1-.28-.15-.38-.25-.11-.11-.17-.34-.2-.36-.12-.07-.53.12-.78.11-.98-.04-2-.6-2.88-.84-.26-.07-.56.02-.81-.05-.23-.07-.35-.41-.53-.44-.17-.03-.45.14-.72.1-.29-.04-.45-.42-.83-.54s-.75-.04-1.13-.11-1.4-.42-1.74-.35c-.14.03-.18.6-.62.49l-.41-.61-1.45.14c-.13-.03-.15-.29-.27-.38-1.28-.94-.98.07-1.62.13-.29.03-.5-.25-.74-.25-.2,0-.4.21-.63.24-.47.06-1.04-.04-1.47-.07-.45-.03-.62.29-.96-.34-.1-.18-.32-.87-.33-1.05-.01-.31.26-.44.23-.58-.03-.15-.8-.14-.6-.84.08-.28.56-.29.24-.77-.28-.42-.46-.17-.67-.22-.33-.08-.99-.95-.7.41-.9-.16-1.52-.89-2.58-.76l-.14-.97c-.69-.04-.8.98-1.59.73-.02-.51-.49-.61-.95-.6-.9,0-.78,1.04-.56,1.66-.04.16-.79.33-.91.31-.48-.1.23-.89.05-1.22-.04-.04-.88.19-1.24-.06-.2-.14,0-.33-.03-.48-.04-.18-.3-.23-.35-.63-.02-.23.11-1.24.2-1.43.17-.35.77-.34.8-.38.08-.09-.11-.45-.05-.62s.48-.32.43-.55c-.63-.46-1.23.22-1.55-.8-.42.54-1.46.38-2.04.19-.27-.09-.5-.35-.71-.41-.83-.22-1.3.45-.28.78-.54.51.07,1.49-.81,1.66-1.02.2-1.07-.41-1.37-.46-.16-.03-.45.13-.72.1-.42-.04-1.13-.27-1.5-.26s-.57.42-1.04.13l-.2.63c-.65.18-1.41-.27-1.85-.25-.31.02-.4.42-.63.47-.18.04-.42-.11-.69-.08-.71.08-.93.41-2.01.34-.51-.03-.5-.02-.99-.02-1.37.02-2.42-.67-3.83-.72-1.11-.04-.91.24-1.58.42-.14.04-1.9.21-2.01.19-.28-.05-.54-.32-.89-.32s-.8.34-1.09.32c-.18-.01-.31-.21-.5-.23-.34-.05-.7.02-1.05,0l.37.68c.6.26.51,1.05.68,1.3.36.53,2.26.72,2.72,1.49.09.15.03.37.09.46.05.07.74.28.9.29.53.03.79-.28,1.34-.25.45.02.82.18,1.18.43,1.03.72.27.93.59,1.63.99.47.58.5.68,1.17.14.91,1.24,1.52,2.01,1.83.51.21,2.09.41,2.24.98.05,1.12-.65.62-1.15.84s-.43.85-1.45.88c-1.68.04-2.89-.82-4.51.22-.7.45-.68,1.36-1.87.98-1.03-.32.1-1.11,0-1.18-1.01-.05-.53.72-.99,1.18-.08.04-1.03-.08-1.11-.13-.14-.09-.18-.41-.31-.56-.15-.16-.38-.19-.54-.32-.13-.1-.19-.38-.33-.42-.23-.07-.38.22-.58.22-.46,0-1.64-.41-2.13-.46-.89-.1-1.86.07-2.7-.02-1.58-.16-2.81-.81-4.25-1.07-.55-.1-2.22-.17-2.56-.29-.15-.05-.24-.5-.7-.41l-.13-.38.2-.31.84.36c.25-.1.24-.41.48-.52.13-.06,1.05-.4,1.17-.43.44-.09.95.13,1.27-.21-.59-.25-.83-.67-1.22-1.14-.11-.29.28-.41.34-.62.07-.27-.24-.68.1-.91.23-.16.93.24,1.28.19l.12,1.18,1.12-.05c.1-.7.85-.87.18-1.43-.14-.12-.64-.4-.8-.44-.84-.22-.67.56-1.36-.58-.05-.09-.25-.08-.25-.16-.04-.47.88-1.25-.55-1.55-.3.03-.25.31-.33.37s-.27-.1-.39-.07c-.26.05-.37.26-.73.19-.57-.11-.88-1.03-1.39-1.31-.39.07-.45.51-.76.7-.65.4-1.18.13-1.84.13-1.44,0-2.93-.03-4.33.19-.61.09-2.61.5-3.07.82-.4.28-.32.89-.99.84-.32-.02-.64-.3-1-.25s-.27.44-.62.5c-1.21.23-.89-.45-1.39-.59-.24-.07-2-.15-2.18-.04-.23.15-.25.89-.89.89-.47.04-.74-.68-1.05-.82-.39-.17-2.83-.15-3.28-.06-.27.05-.35.32-.62.37-.6.12-1.09-.17-1.73.25-.51.33-.63,1.09-1.42.74-.1.09.51.99.62,1.05.53.33.74-.53,1.15-.42l1.07,1.1c.02-.21-.05-.47.02-.66.08-.24,1.8-.69,1.96-.44.14.52-.22.32-.41.47-.12.09-.05.28-.1.35-.1.11-.34.1-.47.22-.2.2-.16.64-.62.75-.21.05-.38-.09-.56-.07-.21.02-.34.25-.62.25-.69,0-1.38,0-2.11.12-.2.03-.33.24-.5.25-.04,0-.21-.4-.45-.55-.43-.27-1.13-.19-1.23-.25-.23-.13-.27-.68-.25-.94-.44-.12-.17.42-.25.5-.32-.01-.77.06-1.05-.13-.2-.15-.14-.4-.27-.5-.09-.07-.35-.06-.4-.12-.14-.19.34-1.19-.14-1.03-.28.1-.32.21-.75.06.29-.56-.09-1.37-.74-1.36-.05.05.12.66-.2.73-.42.14-.76-.25-.95-.21-.17.03-.52.52-.79.57-.32.07-.73-.25-1.07-.21l-.21.3c.04.49.35.86.69,1.17.12.11.37.11.49.25.05.06.81,1.19.84,1.27.2.48,0,.95.12,1.37.06.21.33.3.41.46.17.38.08.96.43,1.42.11.14,1.04.71,1.21.77,1.14.41,2.4.04,3.54.16.46.05.63.31.99.48.31-.21.38-.58.82-.44.12.04.82.57.85.65.08.27-.34,1.09-.61,1.22-.43.2-.77-.11-1.18-.18-.31-.05-.66.05-.96-.03s-.42-.56-.77-.59c-.77-.07-1.28.48-1.76.59s-1.05-.05-1.55.05-1.8.89-2.31.65c-.18-.08-.27-.33-.59-.41-.53-.12-.9.1-1.32.08-1.25-.03-2.63-.62-4.21-.61-2.02,0-4.03.29-6.06,0-.84.24-.14.76-.19,1.28-.01.13-.47,1.19-.56,1.31-.27.37-1.81.72-2.15.43-.19-.16-.31-.58-.41-.64-.16-.1-.53-.02-.71-.22-.19-.2-.06-.68-.55-.81l-.26.72c-.7.13-1.67-.11-2.34.02-.36.07-.29.47-.62.5-.53.05-1.41-.85-1.9-.93s-1.43,0-2.04-.08c-.88-.12-3.18-.71-3.85-.68-.16,0-1.18.42-1.24.56-.06.13.44.73-.05,1.06.99.6,2.31.42,3.21,1.24-.36.54-.53.12-.93.07-1.1-.16-2.04.19-2.83.12-.36-.03-1.33-.58-1.68-.44l-.84.88v.98s.54.42.54.42c.13.75-.47,1.07-1.14,1.11-.59.04-1.07-.45-1.72-.49-.52-.03-1.11.25-1.58.1-.28-.09-.3-.44-.46-.54-.25-.16-.64.15-.94.18-2.92.3-6.19-.05-9.09-.29-.36-.03-1.88-.48-2.22-.63-.27-.12-.65-.81-.96-.9-.16-.05-1.58-.25-1.83-.27-.72-.06-1.49.06-2.21-.02l-.31-1.02c-.79-.41-1.65,0-2.55-.08-.48-.04-.8-.37-1.3-.12-.04-.67.69-.8,1.24-.74.08-.49-.29-.03-.61-.18-.18-.08-.25-.4-.57-.44-.09-.01-1.74.13-1.82.15-.29.09-.56.66-.95.79-.36.11-.7.01-1.05.06-.32.05-.79.37-1.06.18l-.13-.37.5-.38-.7-.67c-.27-.05-.76.64-1,.7-.25.07-.54-.03-.78.08-.19.09-.23.47-.45.54-.27.09-.72-.02-1.06.05-.98.19-1.24.34-2.37.21-.28-.03-.48-.34-.93-.11l-.06-.37-.24-.12c-.91.14-1.86.4-2.74.03-.66,1.21-.64.53-1.28.39-.19-.04-.3.18-.5.13-.22-.05-.56-.41-.82-.43-.3-.03-.46.21-.63.23-.15.01-.3-.19-.48-.22-.42-.06-.81.11-1.09.08-.19-.02-.35-.21-.63-.22-.72-.01-1.05.6-1.14.63-.69.18-.77-.85-1.57-.62-.29-.63.65-.54,1.06-.78.28-.16.79-.91,1.13-1.16.39-.29,1.38-.04,1.2-.9.55.26.65-.28.37-.69-.75.14-.86-.05-1.18-.67-.24.15-.62.17-.84.27-.17.08-.18.27-.25.3-.47.24-1.08.37-1.51.79l-1.88-.85c-1.35-.22-2.66-.49-3.87-1.08-.19-.09-.41-.41-.68-.55-.99-.53-1.05,0-1.87.12-1.05.15-2.17.07-3.19.14-.41.03-1.01.38-1.5.37-.33,0-.63-.25-.87-.24-.38.02-.69.73-1.28.35V0s233.09,0,233.09,0l-.37.43c.43.52,1.37.37,1.24-.43h1.73c-.02.8,1.01.9.87,0h3.59ZM465.8,2.32c.31.08.62.18.94.24,1.58.29,2.84-.22,4.44.14.55.12.91.51,1.53.27.05-.86-1.27-.26-.99-1.36l-.8.49-.19-.87c-.5.04-1.05-.06-1.54.01-.41.06-.76.35-1.13.37-.69.03-1.51-.39-2.26.14v.56ZM450.13,5.07c-.38-.24-.93-.19-1.18.19-.1.47.98.31,1.24.18l-.05-.38ZM435.01,13.11c.26-.13.48-.74.21-.93-.21-.15-.48.06-.67.04-.18-.02-.71-.54-.94-.21-.26.37,1.1,1.07,1.41,1.1ZM428.49,12.86c.43.13.78-.57.21-.72-.51-.13-.64.59-.21.72ZM419,15.78c-.5.23-1.45-.35-1.85.37.3.45.78.53,1.3.43.26-.05.37-.29.61-.38.3-.1,1.27-.3,1.43-.42.33-.24.02-.95-.34-1.04-.44-.11-.75.86-1.16,1.04ZM402.77,16.63c-.03.17-.35.27-.35.51,0,.16.41.79.36,1.11.53.04.57.39,1,.57.12-.62-.68-1.2-.69-1.67,0-.23.69-.62.54-1.22-.14-.39-.79-.3-.94-.05-.14.23.11.57.07.77ZM289.75,17.3c.75-.61-.89-1.05-1.01-.39l.12.4h.89ZM306.54,17.2c-.16.14.75.69.83.72.34.1.73-.05,1.06.05.22.07.33.38.54.45.83.23,2,.54,2.86.73,1.1.24,2.25.37,3.36.28.09-.39-.24-.22-.5-.25.33-.85-.95-.63-1.24-.8-.17-.1-.16-.44-.27-.53s-.36-.06-.51-.15c-.22-.14.15-.37-.62-.03l-2.73-.83-.2.61-2.6-.25ZM412.26,19.42c.54-.69.29-1.07-.55-.74l.55.74ZM411.21,18.56c-.37.01-.73-.08-1.06.11-.06.04-.87,1.14-.9,1.21-.13.43.03.81.44,1,.32-.13,1.81.56,1.72.02-.1-.57-.51-.74.29-1.17-.34-.49-.9.19-1.23-.25-.07-.35.66-.35.72-.45l.02-.48ZM437.12,28.2c-1.56-.49-1.62,1.3.05.61l-.05-.61ZM317.17,29.89c.22.25.69.16.88.36.38.39-.13.71,1.08.9,1.52.24,4.7.57,6.09-.03.39-.17.52-.95,1.24-.61.26.12.4.71.74.25-.34-1.14-1.51-.49-2.25-.58-.38-.05-.72-.46-1.02-.46-.52,0-2.18.88-2.33.84-.2-.05-.32-.39-.54-.46-.52-.15-1.08.15-1.64-.34-.42-.36-.12-1.01-.62-1.12s-.52.25-.82.29c-.26.03-.7-.21-1.02-.08-.21.12.1.9.23,1.05ZM304.87,29.82l-.31-.8c-.32-.19-.65.06-.91.03-.19-.02-.38-.27-.61-.2-.47.14-.15.85-.25.99-.13.17-1.08.31-1.31.43-.53.27-.04.93.3.93.27,0,.4-.41.64-.47.09-.03,1.25-.15,1.32-.14.2.06.25.44.45.54.04.02.9.28.95.28.2.02.33-.17.49-.19.45-.04.85.19,1.28-.35.07-.27-.56-.4-.61-.63-.05-.26.76-.5.43-1.16-.21-.43-1.38-.23-1.64.03-.21.21.07.54-.21.71ZM301.28,29.32c-.11.12-.22.18-.18.37,1.24.42.96-1.2.18-.37ZM288.28,29.44l-.05.43c.14.43,1.78.11,2.17.09.34-.02.64.18,1.07-.04.83-.43-1.01-.77-1.36-.81-.7-.08-1.22-.04-1.83.33ZM269.73,32.3c.09.14-.12.36.12.49.53.13.43-.67.56-.99.5.03.47.36.37.74.3-.07.68.09.93.07,1.17-.09,2.19-.65,3.31-.96.23-.06.49-.3.67-.32.39-.04.67.55,1.02.66.27.09,1.03.11,1.3.05s.35-.31.62-.37c.5-.1,1.29.03,1.85,0,.93-.06,1.57-.28,2.48-.32.76-.03,1.53-.09,2.29-.18v-1.04c-.05-.2-1.85-.06-2.17-.07s-1.03.02-1.23,0c-.27-.03-.45-.37-.5-.37s-.19.25-.31.31c-.23.11-3.71.13-4.15.07-.33-.05-.48-.27-.85-.26-.48.01-2.3.5-2.82.66-.41.13-.82.49-1.33.53-.33.03-.6-.18-.69-.17-.11.02-.2.3-.31.4-.88.75-1.27-1.65-1.84.55.16.05.61.42.67.51ZM309.19,30.31c-.64.92,1.01,1.57,1.52,1.09.43-.39-1.19-1.57-1.52-1.09ZM440.72,31.3l.42-.53-.59-.2.17.73ZM308.62,30.77c-.19-.64-.82-.14-1.21-.09-.08,1.08,1.52,1.11,1.21.09ZM260.14,31.92l.41.4c1.1-.14,2,1.04,3.04.69v-.54s-.36.06-.36.06l.37-.25-.14-.48-.61.04-.17.44c-.33-.21-.73-.25-1.09-.4-.21-.09-.43-.48-.69-.33-.14.08-.09.65-.76.36ZM459.46,38.36v-.87s-.62.06-.62.06l-.12.56c.32-.17.48.11.74.25ZM462.19,39.72h.49s0-1.86,0-1.86h-.49s0,1.86,0,1.86ZM248.94,40.46c.4.92,2.3-.4,1.21-.72-.36-.11-1.37.35-1.21.72ZM251.64,49.27c.24.11,1.16.33,1.41.33.5.02,1.93.07,2.32,0,.36-.06.63-.39.99-.36.32.02.69.38,1.03.47.28.07,1,.14,1.33.16.49.03,2.78.11,2.91-.44.11-.47-1.04-.42-1.27-.46-.62-.09-.96-.25-1.71-.04-.34.09-.27.57-.73.44.11-.47-.29-.77-.71-.84-.4-.07-.65.11-.93.07s-.62-.38-.92-.44c-.41-.08-.67.09-.95.06-.15-.01-.3-.19-.5-.2-.69-.03-.87.53-1.3.67-.34.11-.76.06-1.12.31-.04.26,0,.2.16.27ZM282.29,63.16c0,.13-.23.01-.35.08-.16.1-.12,3.3-.15,3.69l.37-.13-.12-.49.24.25c.26-.53.06-.94.01-1.44-.05-.56-.09-.36-.11-.47-.04-.21.28-.55-.15-.62l.36-.07v-1.11s-.49,0-.49,0l.37.31ZM415.23,65.33l-.08-.23-.36.03-.12.56.6-.03.14-.22.37.31c.34-.39-.1-.68-.48-.65l-.08.22ZM282.91,67.8s-.3.9.12.99l-.06-1.49-.66.03c-.32.52.17.5.59.47ZM377.93,73v-2.66c0-.06.22-.22-.12-.31v2.97s.12,0,.12,0ZM288.72,72.26c.18.03.16-.24.19-.37.08-.44.11-1.12.06-1.55-.03-.23.04-.2-.25-.18v2.1ZM356.65,79.8h.37c.12-.79.16-1.61.18-2.41,0-.33-.12-1.87-.02-2.02.04-.06.24.03.22-.08.02-.11-.18-.02-.22-.08-.23-.36.14-4.57-.03-4.8l-.48.14-.02,9.26ZM357.76,70.96l-.26.24v8.06s.38.3.38.3v-4.9s-.25-.3-.25-.3l.25-.08.13-1.28c.31.18.47-.12.67-.13.08,0,.04.23.14.25,1.05.27.68-.55-.08-.5l.5-.12v-.37s-.62,0-.62,0c.08.94-.37.91-.99.37l.25-.12-.25-.43c.36-.1.38-.47,0-.43v-.12c.56-.02.32-.81-.12-.87v.37s.25.06.25.06ZM303.94,73.37c.05-.35-.06-.23-.31-.25-.64-.04-1.16.02-1.74-.37l-.3.37,2.35.25ZM381.27,73.37l.12,1.61-2.97-.25v1.36s.49.12.49.12c-.34.07-.47.12-.74-.12l.02,1.35c.27-.08.37.24.44.26.23.06,2.48-.12,2.71-.22.15-.06.2-.09.18-.27l.24.25v-.37s-1.98,0-1.98,0c.14-.36,1.12.15,1.12-.31,0-.18,0-.35-.21-.41l-.91-.14,1.98.12c-.05.35-.72-.03-.74,0v.62c.47,0,.86-.09,1.23.25v-.99s-.49,0-.49,0v-2.85s-.5,0-.5,0ZM325.15,84.27c.01-.4-.1-.84-.05-1.25h.37s.06,1.98.06,1.98c.13,0,.04-1.59.06-1.8.02-.32.2-.15.38-.18l-.38-.19c0-.58-.13-.83.38-1.17l-.38-.07.02-1.16.36-.07-.38-.13.02-.92.36-.07-.38-.13.02-1.16.36-.07c-.4-.1-.42-.01-.37-.49l.49.06v-.37s-.49.12-.49.12v-.43s.31-.07.31-.07l.18.25v-1.48s-.12,1.11-.12,1.11h-.37s.12-1.17.12-1.17l.32-.05c.06-.1.05-.21.06-.32.02-.18.09-.86-.13-.93v1.11s-.37,0-.37,0v-1.23s.37-.13.37-.13h-.73s-.13-.37-.13-.37c-.21.64.35.43.38.56v1.1s-.39.14-.39.14l-.11,2.03c.5.1-.1-.73.49-.62v1.11s-.49-.25-.49-.25v2.72s.2-1.07.2-1.07l-.07-1.28h.37s-.02,2.33-.02,2.33l-.48.2v4.39c.19.02.17-.47.17-.6ZM309.26,76.65c.02.17.08.38.25.18l.37-3.34h-.49c.17,1-.25,2.21-.12,3.16ZM419.5,74.86c1.36.21.37-1.1,0-.74v.74ZM341.95,74.35c-.2.07-.54.03-.77.13l.13.49.31-.37.06.37c.36.09.17-.26.48-.31.51-.08.5.28.58.31.21.07.21-.05.09-.19l.46-.06-.62-.12c.22-.28-.26-.61-.58-.45-.03.01-.02.16-.13.2ZM335.25,80.22l-.25.14.15.07.09.36h-.37s-.12-3.46-.12-3.46l.49.25c.06-.4.33-.31.37-.46.09-.33-.04-.82-.13-1.15l-.31.37-.8-.25v8.04s.37-.37.37-.37c0,.2-.19.68.12.74v-2.39s.25-.14.25-.14l-.25-.14v-.91s.37,0,.37,0v3.59c.27-.06.18-.21.19-.37.03-.39-.11-1.71-.05-1.91.05-.14.21-.19.35-.2l-.37-.12c.18-.53-.23-1.34.37-1.55,0-.1-.23-.05-.33-.24-.08-.15.11-1.88.08-2.23l-.25-.31c-.12.78.09,1.83,0,2.64ZM341.8,77.33l.99.12v-1.24s-.99,0-.99,0v1.11ZM340.44,77.33h.62s0-1.11,0-1.11h-.62s0,1.11,0,1.11ZM343.41,77.45h.62s0-1.11,0-1.11h-.62s0,1.11,0,1.11ZM346.01,78.81l-.49-.25.37-.12v-.25s-.37,0-.37,0v-.49s.37,0,.37,0l-.13-.37c-.6.02-.34.92-.35,1.34l.6.14ZM304.11,86.53c.16-.95-.15-1.73-.06-2.46.04-.29.22-.44.26-.73.18-1.28-.14-3-.02-4.33.51-.05.32-.29.5-.5.29-.34.68-.62.87-1.05-.04-.04-.96.5-1,.55-.18.22-.13.75-.55.94l-.18-.25v8.04c.38.09.15-.07.18-.2ZM380.4,78.19h.68s.08-.36.08-.36l.61-.02c.03-.22-.28-.12-.43-.12-.31-.01-.62,0-.93,0v.49ZM336.36,80.3h-.37v-2.6s-.12,0-.12,0v6.56s.18-1.67.18-1.67l-.05-2.17h.37v3.77s.61.57,0,.56l.49.25v-7.3s-.49,0-.49,0v2.6ZM343.41,79.43h.62s0-1.24,0-1.24h-.62s0,1.24,0,1.24ZM341.68,78.57h.62s-.25.37-.25.37l.43-.13.26.13.06-.74-.97.02-.14.35ZM472.09,80.3l-.12-.37c.07.51-.43-.17-.38.37h-.24s0-.24,0-.24h-.18c-.12.02.03.37-.31.24l-.06-.25c-.32.11-.15,1.75.06,1.48v-.37s.5.12.5.12v-.87c.42-.11.53.63.8.01l.94.23v-.74c-.2-.05-.08.17-.14.22-.18.11-.61-.04-.84.16ZM343.41,81.17h.62s0-.99,0-.99h-.62s0,.99,0,.99ZM427.29,83.76c.11-.97.03-1.88,0-2.84l-.24.62-.12-1.24c.06.32-.12.63-.13.93-.02.63.21,1.77.13,2.36-.03.24-.24.12-.27.35-.05.42-.11.98.38.81v-2.6s.25,1.61.25,1.61ZM428.78,81.04c.1.55-.25,1.47.25,1.86-.02-.47-.18-.95-.12-1.42.02-.17.08-.36.25-.18l.25,1.61v-1.86s-.62,0-.62,0ZM300.72,84.51v-3.09s-.12,0-.12,0v3.09s.12,0,.12,0ZM330.42,82.15h.86s0-.49,0-.49h-.87s0,.49,0,.49ZM341.78,81.79c-.15-.06-.69.34-.7.38-.05.13.34.56-.15.47l-.12-.49v1.61s.31-.25.31-.25l.06.37c.2.03.11-.17.12-.31.03-.47-.19-1.84.49-1.24v2.91s.12,0,.12,0c-.09-.95.12-2.11,0-3.03-.01-.1-.16-.27-.14-.42ZM311.42,82.28l1.18-.13-2.35-.19-.25.32c.47-.29.92.02,1.42,0ZM468.3,82.65c.64.16,1.27.13,1.93.12.02-.18-.32-.22-.44-.23-.59-.06-1.19.05-1.78-.13-.06.37.09.2.3.25ZM310.94,82.52h-.93c-.05.13.29.25.31.25h2.29s-1.66-.25-1.66-.25ZM470.23,83.58l-.12-.12c-.51-.06-1.04-.03-1.55-.06-.25-.01-.36.1-.31-.25.57.1,1.22.2,1.8.12.18-.02.38-.09.18-.25-.67.12-1.42-.12-2.04-.13-.26,0-.16,0-.19.19-.05.32.03.72,0,1.06.25-.19.64.1.74-.25l-.49-.25c.59.02,1.2-.03,1.79,0,.06,0,.21.32.18-.06ZM430.24,83.39l.15.13-.25.06c-.11.34.21.27.24.4.06.24.07.65,0,.9h.37s-.25-1.78-.25-1.78l-.37-.07.09.36ZM374.23,84.69l-1.74.18.99.13-.12.37c.5-.12,1.22.25,1.55-.12l.14.25c.51.07.43-.03.42-.49h-.94c-.19-.05-.17.15-.18.17-.18.16-.16-.01-.12-.11.11-.27.33-.4.38-.68l.23.02.2.23.56-.74h-1.23s-.12.81-.12.81ZM309.2,84.5c-.26.04-.65-.15-.56.25h2.47s-1.91-.25-1.91-.25ZM308.64,85v.25s4.08,0,4.08,0v-.12c-1.09-.04-2.19.06-3.28,0-.17,0-.52-.24-.8-.12ZM468.62,85.68c-.37-.57-.86-.21-1.31-.2-.27,0-.6-.05-.88-.07-.24-.02-.15-.04-.16.21.63.03,1.29-.05,1.92,0,.08,0,.33.27.43.06ZM374.22,86.36c.99.18,2.03.19,2.97-.18l-2.97-.18v.37ZM428.28,88.97l.08.37h.68s0-.5,0-.5h-1.36s.61.14.61.14ZM426.06,89.58h1.24c.18-.15-.64-.75-.85-.6l-.39.6ZM421.23,89.7l4.27-.12c.78-.09.43-.75-.47-.37-.1.04-.06.25-.27.25-.52,0-.59-.39-.64-.39-.63-.05-1.5.26-2.18.11-.17-.04-.24-.29-.47-.23.18.4-.05.44-.25.74ZM472.95,100.71h4.21s0-.12,0-.12h-4.21s0,.12,0,.12ZM464.17,100.71h3.71s0-.12,0-.12h-3.71s0,.12,0,.12ZM452.78,100.71h6.43s0-.12,0-.12h-6.43s0,.12,0,.12ZM444,100.71h6.31s0-.12,0-.12h-6.31s0,.12,0,.12ZM434.22,100.71h5.32s0-.12,0-.12h-5.32s0,.12,0,.12ZM423.95,100.71h4.83s0-.12,0-.12h-4.83s0,.12,0,.12Z"/>
    <path class="cls-9" d="M480.37,22.52c-.29-.01-.64.01-.9.15s-.3.43-.42.47-.32-.04-.46,0c-.95.31-1.83.4-1.32,1.67l.75.05-.25.68.37.72-.6.53c.32.68.08.64-.01,1.1-.04.2.47.74.65.83.23.11.47.1.71.09l-.23-.7.18-.28,1.54.24v-5.57Z"/>
    <path class="cls-5" d="M304.2,55.56s.01.41-.26.55c-.22.12-.97.14-1.29.2-.2.03-.34.22-.51.23-.61.07-2.14-.55-3.19-.22-.26.08-.3.49-.7.22l.25.49c-.58.43-1.2.26-1.74.43-.89.27.11.9.71.93s1.28-.32,2.06-.09c.18.05.29.3.47.4,1,.55,1.08.17,2.03.19.7.01,1.6.29,2.35.35s1.05-.2,1.98.15c1.44.54.6,1.01-.43.74.06.21-.14.54-.11.67s.23.14.27.19c.43.6-.86.57-.66-.24h-.43s-.18.56-.18.56l-.5.11c.23.53.91.58,1.44.64.73.08.84.2,1.35.29.67.11,1.54-.08,2.22,0,.39.05.82.42,1.17.19.12-.08.15-.38.33-.42.22-.06.8.35,1.01-.35.22-.73-.45-1.11-.91-1.52l.06-.32c.37-.11.7,0,1.09-.15.42-.17.96-1.41,1.03-.41.83-.04,1.26.65,2.2.36l.09-.6-.57-.32.19-1.17,1.31-.3c-.09-.41-.55-.57-.92-.56-.43.01-.92.43-.81-.24-1.18.23-1.57-1.17-2.79-1.1-.24.01-.62.55-1.12.57-.46.02-.78-.4-1.21-.46-1.28-.18-3.26.05-4.58.11-.17,0-.57-.18-.67-.09Z"/>
    <path class="cls-16" d="M331.11,55.03c.15.03.37-.17.55-.05.18.13.13.77.36,1.01.2.21.5.13.69.3s.37.87.68,1.06c.18.09,2.28-1.04,2.34-.08-.4,0-.19.49-.24.8.63,0,.74,1.14.33,1.45-.07.05-1.25.4-1.43.43-.29.05-.66-.15-.99.06.24,1.3-.27.89-1.06.86-.57-.02-1.15.04-1.71-.02-.94-.09-1.78-.51-2.71-.63l-.2-.17.12-.67c-.39-.12-.44.63-.56.62-.38-.26-.71-.11-1.07-.15-.17-.02-.33-.2-.54-.23-.38-.04-.76.3-1.11-.12v-1.12c.42-.2.91-.09,1.18-.57-.15-.64-.65-.25-1.11-.3-.21-.69.56-1.13.71-1.45.09-.2.07-.63.19-.75.02-.03.61-.28.65-.28.15,0,.3.2.5.24.4.09.67.23.76.25.36.09.93-.06,1.33.01l.08-.36c.09-.09,1.16-.1,1.39-.15.1-.02.1-.17.13-.19.61-.35.47.11.77.17ZM332.01,58.07l.63.21c.05-.49.02-1.04-.62-.99v.78Z"/>
    <path class="cls-18" d="M439.88,66.84c-.1-.13-.45-.13-.56,0l-.15.71c.9-.2.63.48.99.8.19.17.6.16.75.36.14.18.06.49.18.58.22.16,1.22.22,1.55.3.46.12,1.29.47,1.79.54.55.08,1.57-.03,2.05.07.33.07.64.57,1.42.67,1.95.23,1.38-1.09,2.64-1.3.42-.07.66.16,1.05.2.54.05,1.67-.05,1.77-.71.09-.26-.85-1.4-.97-1.46-.56-.28-.56.28-.71.32-.75.2-1.33-.65-1.85-.97-.38-.24-.86-.34-1.22-.65-.28,0-.37.52-.71.66-.09.04-1.09.34-1.15.34-.29.03-1.68-.71-1.98-.75-.49-.06-1.19.33-1.72.38-.86.09-1.45-.07-2.22-.37-.29.08-.06.7-.51.75-.49.05-.33-.3-.46-.47Z"/>
    <path class="cls-81" d="M402.44,35.9l-.03.67c.57.7,1.25-.6,1.38.24.1.65-.77.74-.63,1.42-.62-.2-.95.11-1.54.24-.43.29.56.65.79.82.17.13.22.35.41.47.4.27.89.17,1.08.76-.51.49-.23-.37-1.01-.15-.34.09-.74.43-1.21.4v.37c.19.13,1.34.44,1.56.43.26-.02.32-.29.5-.33.27-.06,1.54.14,1.77.28.15.09.18.42.48.49.2.04.52-.11.81-.06.56.1,1.1.45,1.84.22.16-.05.25-.26.42-.32.25-.08.6.07.78-.21-.22-.63-.87-.8-1.06-1.54-.07-.29.04-.7.01-.75-.09-.15-.49-.15-.66-.45s-.08-.67-.17-.94c-.06-.17-.25-.25-.32-.43-.07-.19.01-.45-.09-.66-.16-.33-.76-.05-.56-.74-.54.23-1.89-.3-2.28-.22-.14.03-.24.27-.41.32-.67.21-1.2-.56-1.88-.33Z"/>
    <path class="cls-71" d="M275.23,50.36c1.05-.1,1.77.57,2.87.34.57-.12.64-.5,1.14-.59l.75.63c.44-.51,1.28-.31,1.55-.81-.05-.2-.84-.36-1.03-.55-.14-.14-.11-.38-.26-.51-.27-.22-.76.04-.25-.84.13-.22.63-.56.66-.71.07-.39-.62-.4-.85-.49-.15-.06-.26-.23-.47-.28-.45-.1-3.68.1-3.94.34-.4.38-.08,2.81-.18,3.47Z"/>
    <path class="cls-70" d="M390.3,52.58c-.6.11-.57-.24-.82-.62h-1.4c-.07.23.19.3.23.47.06.24-.25.54.02.72.12.08.35.05.49.13.17.09.89.81,1.13.97.82.55,1.39.23,2.13.35.2.03.33.24.46.28.34.1.67.02.94.3l.28-.18c-.08-.45-.21-1.03-.12-1.48.07-.36.52-.13.37-.98-.23-1.23-1.29-1.09-2.16-1.56-.59.64-1.2.19-1.79.69l.25.92Z"/>
    <path class="cls-84" d="M381.89,37.49l.06.99c-.24.4-1.26-.02-1.41.83-.14.8.77,1.07.72,1.33-.04.22-.67.1-.8.05-.58-.2-.6-.62-1.41-.1-.27.45.62.94.94,1.06.08.03,1.14.29,1.21.29.66,0,.29-.65.63-1.01.56.25,1.07-.06,1.58.01.36.05.53.34.81.43.15.05,1.43.31,1.5.25l.19-1.19-.68-.12-.18-.62-.82-.11v-.61c-.66.11-.54-.33-.83-.63l-1.52-.86Z"/>
    <path class="cls-39" d="M362.24,29.48s-.02.26-.2.22l-1.25-.14c-.23.31.07,1.28.38,1.34.12.03.37-.12.6-.1.53.05,1.85.65,2.35.62.35-.02,1.17-.59,1.85-.46.13.03.33.31.57.41.54.22,1.24.29,1.61-.25,0-.37-2.62-.74-3.02-.82-.53-.11-1.37-.16-1.72-.26-.25-.07-.85-.73-1.18-.56Z"/>
    <path class="cls-25" d="M393.9,32.31c-.28,1.17-3.05-.13-3.53.23s.6.68.92.55c-.02.82,1.05,1.52,1.77,1.43.18-.02,1.38-.84,1.42-.95.09-.28-.03-1.16-.29-1.28h-.29Z"/>
    <path class="cls-48" d="M297.38,60.88c-.81-.14-1.02-1.22-1.98-.74.03.22.27.2.4.27.66.36-.9.55-1,.14-.03-.12.15-.27-.01-.49-.32-.44-1.31-.34-1.56.06-.05.08.04.26,0,.37-.1.27-.6.95-.11,1.09.05.01.9.04.97.04.55-.05,1.25-.46,2-.49.4-.02,1.23.43,1.29-.26Z"/>
    <path class="cls-41" d="M304.31,52.34l-.09-.37c-.47.06-.43-.55-.65-.68-.35-.21-1.06.08-1.32-.54-.54.07-2.07-.11-2.13.56.29.77,1.37.43,1.77,1.15.72-.92.86.08,1.24.13.51.07.7-.53,1.17-.26Z"/>
    <path class="cls-47" d="M347.72,57.52l-.68.26.07.75c1.19-.33,2.3.16,3.46-.25l-.05-.86c-.46-.61-1.9-.13-2.17-.31-.13-.08-.05-.43-.43-.31l-.2.72Z"/>
    <path class="cls-55" d="M427.73,67.8c-.66.74.36.88.19,1.61.04.04.84-.04,1.05,0,.25.05.32.27.6.34.76.2,1.04-1.95.15-1.95h-1.98Z"/>
    <path class="cls-59" d="M246.91,52.94c.25.37,2.09.07,2.52.14.26.04.46.26.74.24.35-.02.9-.47.81-.86-.58-.21-1.23-.04-1.79-.13-.33-.05-.57-.34-.87-.35-.43-.02-1.84.34-1.42.96Z"/>
    <path class="cls-69" d="M347.64,32.94c-.04.07-.13.87-.09.96.03.08.7.72.82.8.75.51.82.12,1.6-.05.01-.39-.49-.41-.67-.75-.19-.35-.05-.7-.44-1.04-.1-.09-.54-.32-.66-.29-.03,0-.53.35-.55.38Z"/>
    <path class="cls-15" d="M422.1,67.06c-.14.66.89.46.74,1.11h-1.36c-.5.45,1.99.49,2.15.51.23.03,2.07.65,2.05.17-.55-.33-.22-.95-.61-1.36-.65-.37-.96.4-.74.93-.18,0-.37.03-.55,0-.9-.16-.43-1.52-1.68-1.35Z"/>
    <path class="cls-38" d="M374.74,66.09l-.28.17c-.13.52.57.7.68.92.15.31-.07.75.24,1.01l1.5-.13-.06-.82c-.78-.38-1.15-1.11-2.08-1.14Z"/>
    <path class="cls-50" d="M376.53,39.25c.1.06.13.39.36.44.51.1.92-.65.98-1.09-.79-.97-1.42-.49-1.92.44.13.24.43.12.58.22Z"/>
    <path class="cls-34" d="M311.36,53.57c-.62.2-.89-.57-1.11-.68-.06-.03-1.11-.27-1.21-.28-.26-.02-.59.08-.77.28.32.37.86.09,1.27.21.31.09,1.63,1.85,1.82.47Z"/>
    <path class="cls-60" d="M417.65,67.56c-.07.38.12.19.29.26.4.16,1.47.43,1.88.48.46.05.95-.02,1.42,0-.04-.15-.2-.29-.34-.34-.86-.29-2.32-.27-3.25-.4Z"/>
    <path class="cls-82" d="M375.82,40.21l-.26-1.59c-1.41-.29-.79,1.81.26,1.59Z"/>
    <path class="cls-6" d="M318.04,57.04l1.06.87c.22.03,1.28-.23,1.29-.44l-1.45-.4-.9-.03Z"/>
    <path class="cls-44" d="M257.48,40.71c-.08-.02-1.44.12-1.58.15-.24.05-.43.23-.58.41,0,.56,1.99-.02,2.29-.31.12-.07-.09-.24-.13-.25Z"/>
    <path class="cls-40" d="M330.83,72.4c-.2-.05-1.01-.06-1.2,0-.37.12-.28.59.23.61.31.01,1.6-.45.97-.61Z"/>
    <path class="cls-24" d="M348.74,74.37l-.38.67c0,.23.82.24.99.13.41-.28-.27-.85-.61-.8Z"/>
    <path class="cls-49" d="M451.79,73l.96.34c.48-.03,1.3.5,1.14-.21l-2.1-.12Z"/>
    <polygon class="cls-73" points="282.17 49.37 281.92 50.11 283.15 50.23 283.15 49.86 282.68 49.85 282.53 49.37 282.17 49.37"/>
    <path class="cls-83" d="M306.78,40.7c.03-.22-.28-.12-.42-.11-.19.02-1.19.13-1.19.29.6.72,1.02.1,1.6-.19Z"/>
    <path class="cls-23" d="M351.08,57.41l.93.38c.17.01.24-.76-.13-.85-.29.07-.83.06-.79.47Z"/>
    <path class="cls-57" d="M241.33,38.73c.28,0,1.45.11,1.24-.43-.14-.36-1.24.05-1.24.43Z"/>
    <path class="cls-22" d="M444.12,57.53l.13.74.74-.12c.06-.56-.39-.68-.87-.62Z"/>
    <path class="cls-45" d="M396.98,31.3l-.71-.46c-.65-.17-.68.48-.06.57.25.03.52-.14.78-.1Z"/>
    <path class="cls-77" d="M295.15,58.39v-.6c-.35-.07-.65,0-.85.3.21.3.5.37.85.3Z"/>
    <path class="cls-67" d="M346.92,32.43c-.19-.06-.46-.03-.53.19l.17.54c.39-.03.87-.57.36-.73Z"/>
    <path class="cls-56" d="M346.87,56.29l.55.25c.25-.17.19-.48.19-.74-.32-.06-.76.08-.74.49Z"/>
    <polygon class="cls-80" points="407.27 19.07 407.44 19.55 408.06 19.06 407.99 18.68 407.27 19.07"/>
    <path class="cls-11" d="M356.03,30.07l.07.38c1.16.58.99-.64-.07-.38Z"/>
    <path class="cls-10" d="M470.72,29.57c.38.78-.27.5-.25,1.11.92-.07,1.38.02,1.81.86,1.2-.39.18-.84-.2-1.41l-1.35-.56Z"/>
    <path class="cls-35" d="M474.81,31.55c.08-.44-.54-.43-.68-.62-.21-.28.02-.98-.57-.69-.03.34-.46,1.49-.31,1.69.35.48,1.18-.28,1.56-.38Z"/>
    <path class="cls-51" d="M471.9,72.01c-.36-.07-1.04,1.29-.35,1.47s.66-1.4.35-1.47Z"/>
    <path class="cls-33" d="M474.35,29.35c-.16-.01-.29.08-.41.16l-.12.37,1.05.43c.36-.05-.1-.93-.51-.96Z"/>
    <path class="cls-52" d="M271.03,31.92c-.02.8,1.4.12,1.11-.12l-1.11.12Z"/>
    <rect class="cls-72" x="325.1" y="81.66" width=".37" height="1.24"/>
  </g>
  <g class="cls-89">
    <path class="cls-53" d="M3.59,0C3.45.9,4.48.8,4.46,0h1.73c-.13.8.8.95,1.24.43L7.06,0h233.1v31.54c-.6.38-.92-.33-1.3-.35-.24-.01-.54.24-.87.24-.49,0-1.09-.34-1.5-.37-1.02-.07-2.14,0-3.19-.14-.82-.11-.88-.65-1.87-.12-.28.15-.5.46-.68.55-1.21.59-2.52.86-3.87,1.08l-1.88.85c-.42-.42-1.03-.55-1.51-.79-.06-.03-.08-.23-.25-.3-.21-.1-.59-.13-.84-.27-.33.62-.44.81-1.18.67-.27.41-.17.95.37.69-.18.86.81.62,1.2.9.34.25.84,1,1.13,1.16.42.24,1.36.15,1.06.78-.8-.23-.89.8-1.57.62-.09-.02-.42-.64-1.14-.63-.29,0-.45.2-.63.22-.28.03-.67-.15-1.09-.08-.18.03-.33.23-.48.22-.17-.02-.33-.25-.63-.23-.26.02-.6.38-.82.43-.2.05-.31-.17-.5-.13-.64.14-.63.82-1.28-.39-.88.37-1.83.11-2.74-.03l-.24.12-.06.37c-.45-.23-.65.08-.93.11-1.13.14-1.39-.02-2.37-.21-.35-.07-.79.04-1.06-.05-.22-.07-.26-.45-.45-.54-.25-.12-.53-.01-.78-.08-.23-.07-.72-.75-1-.7l-.7.67.5.38-.13.37c-.27.19-.75-.13-1.06-.18-.35-.05-.69.05-1.05-.06-.39-.12-.65-.7-.95-.79-.09-.03-1.73-.16-1.82-.15-.32.04-.39.36-.57.44-.33.15-.69-.31-.61.18.55-.06,1.28.07,1.24.74-.5-.25-.82.08-1.3.12-.9.08-1.76-.33-2.55.08l-.31,1.02c-.72.08-1.49-.04-2.21.02-.25.02-1.67.23-1.83.27-.31.09-.69.79-.96.9-.35.15-1.86.6-2.22.63-2.9.24-6.16.59-9.09.29-.3-.03-.69-.34-.94-.18-.15.1-.18.45-.46.54-.47.15-1.06-.13-1.58-.1-.65.04-1.13.52-1.72.49-.67-.04-1.27-.35-1.14-1.11l.52-.42v-.98s-.83-.88-.83-.88c-.35-.15-1.32.4-1.68.44-.78.07-1.73-.27-2.83-.12-.4.06-.57.48-.93-.07.91-.82,2.22-.63,3.21-1.24-.49-.33.01-.92-.05-1.06-.07-.15-1.09-.55-1.24-.56-.67-.04-2.97.56-3.85.68-.61.08-1.53,0-2.04.08s-1.37.98-1.9.93c-.33-.03-.26-.44-.62-.5-.66-.13-1.63.11-2.34-.02l-.26-.72c-.49.12-.36.6-.55.81-.18.19-.55.11-.71.22-.1.07-.22.48-.41.64-.34.29-1.88-.06-2.15-.43-.09-.12-.55-1.18-.56-1.31-.05-.52.65-1.04-.19-1.28-2.03.28-4.04,0-6.06,0-1.59,0-2.96.58-4.21.61-.43.01-.79-.21-1.32-.08-.31.07-.41.32-.59.41-.51.23-1.82-.55-2.31-.65s-1.07.06-1.55-.05-.98-.67-1.76-.59c-.35.03-.48.51-.77.59s-.65-.02-.96.03c-.41.07-.75.37-1.18.18-.27-.12-.69-.95-.61-1.22.03-.08.73-.61.85-.65.44-.14.51.23.82.44.36-.17.53-.43.99-.48,1.15-.12,2.4.26,3.54-.16.17-.06,1.1-.63,1.21-.77.35-.47.26-1.04.43-1.42.07-.16.34-.25.41-.46.12-.41-.08-.88.12-1.37.03-.07.79-1.21.84-1.27.12-.14.37-.14.49-.25.34-.31.64-.69.69-1.17l-.21-.3c-.34-.03-.75.28-1.07.21-.27-.06-.62-.54-.79-.57-.2-.04-.53.36-.95.21-.33-.07-.15-.67-.2-.73-.65,0-1.03.81-.74,1.36-.42.15-.46.04-.75-.06-.48-.16,0,.84-.14,1.03-.05.07-.31.05-.4.12-.13.1-.07.35-.27.5-.27.2-.73.12-1.05.13-.08-.08.19-.61-.25-.5.02.26-.02.8-.25.94-.1.06-.79-.02-1.23.25-.24.15-.41.55-.45.55-.17,0-.3-.22-.5-.25-.72-.12-1.42-.12-2.11-.12-.28,0-.41-.23-.62-.25-.17-.02-.35.12-.56.07-.46-.11-.41-.56-.62-.75-.13-.12-.37-.11-.47-.22-.06-.07.01-.25-.1-.35-.2-.16-.55.05-.41-.47.16-.25,1.88.2,1.96.44.06.19,0,.46.02.66l1.07-1.1c.42-.11.62.75,1.15.42.1-.07.72-.96.62-1.05-.79.34-.91-.41-1.42-.74-.64-.42-1.13-.13-1.73-.25-.27-.05-.35-.31-.62-.37-.45-.09-2.88-.11-3.28.06-.31.13-.58.86-1.05.82-.64,0-.65-.74-.89-.89-.18-.12-1.94-.04-2.18.04-.49.15-.18.82-1.39.59-.35-.07-.27-.45-.62-.5s-.68.23-1,.25c-.68.05-.59-.57-.99-.84-.46-.32-2.47-.73-3.07-.82-1.41-.22-2.89-.19-4.33-.19-.66,0-1.19.27-1.84-.13-.3-.18-.37-.62-.76-.7-.51.28-.82,1.21-1.39,1.31-.36.07-.47-.14-.73-.19-.12-.02-.32.13-.39.07s-.03-.34-.33-.37c-1.43.3-.51,1.08-.55,1.55,0,.08-.2.07-.25.16-.7,1.14-.52.36-1.36.58-.16.04-.66.32-.8.44-.67.56.07.73.18,1.43l1.12.05.12-1.18c.35.05,1.05-.34,1.28-.19.34.23.03.64.1.91.06.21.45.33.34.62-.4.47-.63.89-1.22,1.14.31.34.83.12,1.27.21.12.02,1.04.37,1.17.43.24.11.23.42.48.52l.84-.36.2.31-.13.38c-.45-.09-.54.36-.7.41-.34.12-2,.19-2.56.29-1.43.26-2.67.91-4.25,1.07-.84.09-1.81-.08-2.7.02-.49.05-1.67.46-2.13.46-.2,0-.35-.29-.58-.22-.15.04-.2.32-.33.42-.17.13-.4.16-.54.32-.13.14-.17.47-.31.56-.08.05-1.03.17-1.11.13-.47-.46.02-1.23-.99-1.18-.09.07,1.03.86,0,1.18-1.2.37-1.17-.53-1.87-.98-1.61-1.04-2.83-.18-4.51-.22-1.03-.02-.96-.66-1.45-.88s-1.2.28-1.15-.84c.15-.57,1.74-.77,2.24-.98.77-.32,1.88-.93,2.01-1.83.1-.67-.31-.7.68-1.17.32-.7-.44-.91.59-1.63.36-.25.73-.41,1.18-.43.56-.03.82.28,1.34.25.16,0,.84-.22.9-.29.07-.09,0-.31.09-.46.46-.77,2.36-.96,2.72-1.49.17-.25.08-1.05.68-1.3l.37-.68c-.34.02-.71-.04-1.05,0-.19.03-.32.22-.5.23-.29.02-.73-.33-1.09-.32s-.62.27-.89.32c-.11.02-1.87-.15-2.01-.19-.67-.18-.47-.46-1.58-.42-1.41.05-2.46.74-3.83.72-.49,0-.49-.01-.99.02-1.07.06-1.3-.27-2.01-.34-.27-.03-.51.13-.69.08-.23-.05-.32-.45-.63-.47-.44-.02-1.2.42-1.85.25l-.2-.63c-.48.29-.68-.12-1.04-.13s-1.08.22-1.5.26c-.27.03-.57-.13-.72-.1-.31.06-.35.66-1.37.46-.87-.17-.27-1.16-.81-1.66,1.02-.33.55-1-.28-.78-.21.06-.44.32-.71.41-.58.19-1.62.36-2.04-.19-.31,1.02-.92.34-1.55.8-.05.23.37.39.43.55s-.13.53-.05.62c.03.03.63.03.8.38.09.18.22,1.2.2,1.43-.04.4-.31.45-.35.63-.03.15.17.34-.03.48-.36.26-1.2.02-1.24.06-.18.34.54,1.12.05,1.22-.12.03-.87-.15-.91-.31.22-.61.35-1.65-.56-1.66-.45,0-.92.09-.95.6-.79.26-.91-.76-1.59-.73l-.14.97c-1.06-.13-1.68.6-2.58.76.29-1.36-.37-.49-.7-.41-.21.05-.39-.2-.67.22-.32.48.16.49.24.77.2.7-.57.69-.6.84-.03.14.24.27.23.58,0,.18-.23.87-.33,1.05-.34.63-.51.31-.96.34s-.99.13-1.47.07c-.23-.03-.43-.24-.63-.24-.24,0-.44.27-.74.25-.64-.06-.34-1.07-1.62-.13-.12.09-.14.35-.27.38l-1.45-.14-.41.61c-.44.11-.47-.46-.62-.49-.33-.07-1.35.28-1.74.35s-.73-.01-1.13.11-.54.5-.83.54c-.27.04-.56-.13-.72-.1-.19.03-.31.38-.53.44-.25.07-.56-.02-.81.05-.88.24-1.9.8-2.88.84-.24.01-.66-.19-.78-.11-.03.02-.09.25-.2.36-.1.1-.32.15-.38.25-.09.14.07.36.05.53-.07.49-.65.55-.79.95-.21.62.3,1.69-.1,2-.23.18-.69.11-1.12.48-.41.36-.86.62-1.12.86-.18.16-.15.44-.37.62-.1.07-2.11.95-2.23.97-.16.03-.35-.12-.67-.04-.5.12-.77.69-.82.7-.21.03-.54-.26-.78-.08-.43.27-.33,1.32-.7,1.42-.12.03-.95-.45-1.04-.54-.24-.25-.2-.8-.57-.91-.48-.15-1.08.16-1.55-.05-.23-.11-.33-.34-.47-.4-.74-.33-.38.02-1.12-.61-.4-.34-2.07-.61-2.71-.88-.29-.12-.62-.48-.84-.53-.4-.1-1,.44-1.5.21-.11-.69-.99-.86-.89-1.59-.24-.27-.52.95-.93.87-.5-.33.27-.73-.12-1s-1.01,0-1.47-.27c-.37-.21-.56-.95-1.26-.96l-.18,5.32h.74v-2.35h.25v2.35c.39.08.69-.35,1.03-.34.15,0,1.74.24,1.82.27.33.11.41.52.56.56.17.04.42-.3.7-.22s.49.65.9.73c.62.12,1.13-.38,1.82-.22.6.14,1.16,1.11,1.08,1.71h-.42s-.2-.87-.2-.87c-.42.33-.98-.14-1.16-.11-.13.02-.33.34-.54.45-1.12.57-2.53.58-3.33,1.74l-1.27.15c0-.24.1-.44-.25-.37l-.25,9.4,1.53.02.16.17-.08.31,1.11.13-.25,12.37,1.61.12-.12,18.06.44-.12.13-.88,1.92-.17c-.03-.54.46-.55.37-1.18l.12.5h1.11s-.09.43-.15.47c-.12.08-.38-.08-.34.15h.74s-.37.25-.37.25h.74s0-6.85,0-6.85l.25-.14-.25-.14.12-1.23,3.76-.17.14-.25.06.25h.25c.01-.61.94-.08,1.18-.06.71.06,1.81-.04,2.48.05.2.03.25.42.67.26v1.86h.49v4.52s-.13.1-.07.19l.5.5c-.07-.4.3-.5.32-.67.13-.98-.18-2.31-.13-3.34.69-.27-.21-.31,0-.57.02-.03.29,0,.35-.2.12-.35.13-1.03-.35-.67.13-.46-.24-1.14.49-.86l.25-8.41c.27-.06.3.16.39.35l.72.02.05-1.49.62-.35.31.11v-3.15s.25-1.42.25-1.42v4.45h.25v-3.46c.08,0,.25.16.25.19v3.22c0,.07.28.26.37.18l-.25-.37c.5.19.84.17,1.06.72l1.29.03v-.62s.25.13.25.13v-3.41s.25-1.42.25-1.42v4.52c0,.06-.22.22.12.31-.04-.13.13-.27.13-.31v-3.65c.08,0,.25.16.25.19v2.97c0,.22-.1.44.06.69h.31s-.12.48-.12.48h.5s0,1.24,0,1.24c.21-.02.47.05.67-.02.23-.08.1-.47.45-.35v7.42c.42.04.24-.5.68-.37.05.01.06.26.13.26.31,0,1.74-.47,2.15-.56.55-.12,1.66-.39,2.34-.37s1.32.24,2,.18l.02,1.4c.12.4.59.3.59.33v1.98l.62.06-.62.06v.37s.99-.12.99-.12l-.12-.37,1.23-.14.08-.37c.37.07.87-.07,1.21.01.09.02.07.22.17.24.29.07.7-.06,1.01.14v1.39s.51.2.51.2l.12-11.18,3.1-.45.06-.49.06.5c.33.04.32.02.43-.25l.06.25h.24c-.06-.3.61-.41.85-.43.41-.03,1.51.32,1.51-.19l.2.25c.55.05,1.43,0,1.94.12.1.02.04.24.27.26.41.03.87-.22,1.3-.14v.5s1.93.13,1.93.13l.42-.26v.37s.56-.25.56-.25c.1.36.47.38.43,0h.12c-.03.68,1.35.23,1.49.37l-.11,7.47.26.18.59-.1-.13-.37c-.84.68-.85-.24-.05-.36.43-.07.93.06,1.35-.01.24-.04.4-.31.69-.24v.37h2.35v.99h2.23c.11.39-.32.18-.44.36l-.06,2.91.38.19-.49.25,1.78-.14.2-.29.12-13.3c.67-.03,1.22.22,1.55-.49l.43.25.13-.62c.25-.02.04.33.14.48.02.04.56.21.66.21.27,0,1.64-.19,1.55-.56l.3.26c.4-.08,1.15,0,1.5-.06.17-.03.22-.26.38-.29.19-.04.81.18,1.11.16.38-.02,1.14-.32,1.35-.68l.43.37v-.62s.25.74.25.74l.3-.13c.16.45.66.19,1.06.25l.02,4.56,1.34.14v.5c.33,0,1.25-.01,1.49.18.18.15.06.45.14.54.1.11.23.12.52.47.24.3.95,1.27,1.2,1.34l5.37-.3.2-.75.19.25.85-.12.19-.38.06.37.18-.25.07.25c.38-.24.61.12.98.13.56,0,1.29-.05,1.86-.01.32.02.73.26,1.1.24l.07.51c.28.04.64-.06.91,0,.09.02.07.21.17.24.17.05.72-.16.95-.12.09.01.08.21.18.24,1.13.33,2.69.05,3.86.38v2.23c.34,0,.59.13.68-.25l.06.16c.03.3.48-.22.49-.25.1-.5-.18-2.94,0-3.13l.5.05.12.57c.41.08.18-.21.24-.41.11-.34.56-.15.56.28.83-.35-.55-2.51,1.05-1.98v-8.53c.14-.14,2.37-.27,2.76-.38.11-.03.08-.23.14-.23.17,0,.44.2.69.11l-.37-.12.26-.61,1.54-.11c.23.52.34.53.91.6v1.72s1.01.21,1.01.21v20.75s.62.28.62.28l.24,3.14c.15.2.22,0,.25-.18.06-.48-.09-1.14,0-1.58,0-.03.38-.3.37-.52l-.37.06c.02-.17-.04-.38,0-.54.04-.14.32.02.25-.27-.03-.13-.21-.01-.23-.12-.04-.23-.05-2.06,0-2.15.04-.06.24.03.22-.08l-.25-.14v-2.77s1.35,0,1.35,0c.14-.12-.07-3.22,0-3.77.03-.21.37-.22.26-.55.3.2.72,0,.91.03.16.03.23.28.45.21l.25-.37c-.11.62.67.49.5,0,.36-.12.15.31.43.25.21-.05.93-.32,1.11-.33.09,0,.43.32.68.2l-.13-.25h1.16s.26.45.26.45l.56.05.07-.38,1.14.16.15,1.7c.6.06,1.29-.27,1.89-.1.09.03,1.35,1.13,1.39,1.21.16.34-.16,1.41-.19,1.91-.06,1.08.07.96.99.56.05-.2-.21-.05-.25-.2s.07-.54-.06-.54l-.18.74c0-.29-.04-.61.02-.9.02-.07.65-1.13.76-1.28.18-.26.34-.49.52-.78.07-.1.26-.11.29-.14.06-.08-.36-.53-.11-.67.76-.14,1.53-.02,2.29-.06,2.18-.11,3.99-.04,6.19.12.17.01.28.07.43.13l-.12-1.48h1.86v-1.24s1.17,0,1.17,0l.14-.39c1.27-.09,2.56.33,3.87.27l.02,6.17,2.53-.11.14-.39c.46,0,.89-.02,1.32.14.08.03.09.21.18.23.58.14.58-.27.53.75.56.04,1.16-.16,1.61.25l.74-1.48-.53.24c-.56-.68-.99-.61-1.73-.76-.25-.05-.44-.52-.59.15h-.24c-.11-.68-1.02-.21-1.58-.45-.17-.07-.18-.27-.28-.34-.5-.34-1.21-.69-1.48-1.25.07-.32,2.02-.61,2.41-.55.26.04.46.25.75.25s.53-.22.86-.26c.87-.11,2.9.06,3.57-.12.12-.03.14-.27.29-.35.79-.49,1.04-.29,1.83-.4.51-.07,1.12-.42,1.68-.05.11.27-.35.15-.56.3-.12.09-.21.22-.18.38.33-.18.83,0,1.04-.03.19-.03.29-.4.64-.46.7-.14,1.68.25,2.28-.31l-.25-.43c.15,0,1.07-.41.87-.62-.58-.21-2.34.09-2.77-.23-.13-.1-.06-.72-.58-.84.01-1.07.93-.52,1.54-.54,1.29-.06,4.44-.8,5.64-.3.59.24.56.19,1.15.34.48.12.95.32,1.45.34l-1.17.75c-.56,0-1.22-.32-1.38-.89-1.32-.05-2.45-.35-3.63.44l.86.87c.65.13,3.75-.06,4.03.43.08.14.05.33.07.49l1.48.13-.24.56-.87.42,1.24.12.13-1.48.12.25,3.97-.3-.14-16.57c.05-.22,2.38-.39,2.73-.33l.12-1.06,1.49-.05v-6.93c.32-.04.35.19.38.43.24,2-.19,4.46,0,6.5l1.18.12c.24.78-.25,1.82.31,2.41l.11,16.65.91-.02.2-.29-.12-7.89c.66-.75.84-1.93,1.14-2.84.72-2.13,3.29-3.76,2.69-6.34l.24-1.67.15,3.5c.76,1.23,2.48,2.83,2.88,4.17.32,1.03.59,1.65.92,2.57.3.84.35,2.5.38,3.55.08,2.43-.11,4.88,0,7.31,0,.15-.09.46.12.43v-2.04s.35-.65.45-.67c1.39.45.37.92.44,1.38.08.56.73.96.73,1.02v3.16c.22.03.12-.28.12-.43.15-3.61.05-7.51,0-11.14,0-.29-.13-.56-.13-.86-.08-6.77-.12-13.52-.23-20.29-.43-.04-.38-.31-.56-.44-.19-.15-.56-.1-.57-.43,0-.51.8-.05,1.12-.31.12-.17-1.3-1.35.05-1.24.57.05,1.15.49,1.53.59.27.07.55-.02.81.05.38.1.72.75,1.26-.02l.31.25.31-.47c.31.32.37.22.68-.02l.25.37c.16-.22-.59-2.36.06-2.23.67.77-.72,2.34.81,2.23,0-.23-.03-.55.25-.62v.5c.23.07.5-.13.67-.13.07,0,.06.21.24.27.41.14,1.16.35,1.56.22-.06.63.38.96.99.87l-.12-.62c.72.16,1.59-.09,2.29,0,2.03.23,2.53-.15,4.34-.33.45-.04,1.01.28,1.37.31.3.03.58-.15.95-.09.79.11,1.27.14,2.11.13,1.03-.01,2.39-.3,3.22.35.67-.56.61-1.46-.26-1.72.16-.96-.02-.56-.43-1.05-.66-.79-.19-1.07.25-1.8-.57-.15-.91-.56-1.54-.26l-.2-.48c.32.05.63-.1.93-.13.21-.02.43.12.59.09.22-.03.71-.51,1.14-.58.59-.09,1.4.14,1.83.08.35-.05.98-.48,1.48-.33l.34-1.23c.43-.24.82.36,1.02.34.32-.03.61-.65,1.07-.48.14.57-.01.86-.25,1.36l-.54-.23-.32.3c.37.26.33.4.3.81l.44.18c-.01.19-1.09.2-.62,1,.69,1.17,1.04.05,1.32-.05.57-.2,1.47.43,1.53-.27-.29-.01-.77-.1-.74-.5,1.21.27,2.37.02,3.59,0v8.54c-.64-.29-1.19-.02-1.79,0-.23,0-.49-.16-.75-.14-.3.02-.48.29-.73.27s-.34-.3-.53-.36c-.21-.07-2.07.34-2.2.47l-.31,1.3,6.31.68v3.96c-.72-.07-1.79-.1-2.46-.33-.36-.12-.32-.31-.48-.42-.63-.41-1.31-.03-2.01-.3l-.06-.31c.4-.61,1-.45,1.56-.57.22-.05.41-.25.68-.29.3-.04.96.22,1.04-.07.18-.65-.73-.3-1.05-.3-.98,0-.58-.71-1.12-.76-.31-.03-.82.36-1.23.36-.46,0-.79-.38-1.48-.36-1.34.04-2.67.23-3.96.5-.4.08-1.03-.19-1.16.42l.48.62c-.38.65-.76.13-1.18.08-.61-.07-2.49-.33-2.96-.25-.34.06-.64.34-1.13.37-.68.04-1.42-.21-2.16,0l.13-2.42-4.45-.07v-.98c.13.03,1.14,0,.98-.31-.17-.32-1.44-.28-1.11-1.46.07-.24,1.01-.32,0-.66,0-.37.02-.74,0-1.1,0-.15.09-.46-.12-.43.02,1.17-.03,2.36,0,3.53.18,7.86.38,15.76.51,23.62.04,2.66-.12,5.4,0,8.05,0,.15-.09.46.12.43v-6.68c.5.29.26,1.14.39,1.53.06.19.48.31.48.39v5.38c.22.03.12-.28.12-.43.08-1.92.03-4.01,0-5.95-.05-4.1-.04-8.26-.12-12.37-.02-.81-.36-.84.86-.8.06-.04-.12-.16-.12-.18v-2.04l10.57-.87c1.69-.15,2.74.98,4.42.24.46-.2.81-.31,1.42-.35.16,0,.41.14.42.12.03-.07-.05-.26.02-.34.3-.35,2.21-.22,2.7-.15v.62s1.49-.12,1.49-.12v12.25l-.87.06.87.06v7.55l-1.11.06,1.11.06v2.23h-1.86v.12h1.86v78.44H0V58.65l.62.37-.12-1.48c.98-.03,1.93-.15,2.9.11l.21,1.36.97.02v.74s.38.07.38.07l-.08.81.45.19-.25,9.08.23-.11.14.23.19-.37c.44.87.81.11.87.12.21.01.62.34,1.05.13l-.25,9.46.5.07-.12.62h.37s-.13-.25-.13-.25c.12-.08,1.02.07,1.28,0,.13-.04,0-.37.33-.25l.25.37v-.49c.37.16,2.25.27,2.34-.08.05-.2-.27-.55,0-.73l.99.07.25-15.47,1.61-.12.25-12.99h1.11s.25-9.53.25-9.53l.66-.02.19-.18c-.27-.61,0-1.14.02-1.72.05-1.05,0-2.17.12-3.22.03-.23-.04-.2.25-.18v2.35l.6-.02c.23-.14.22-4.55.26-5.25.05-1.01.32-2.16.13-3.15h.37c-.07.3-.12.62-.12.93v7.61h.12v-2.23c.55-.02.41,1.25.37,1.67-.04.47-.56,1.75.01,1.86.88.18.35-1.03.36-1.49,0-.24.12-.47.13-.74.01-.62-.08-1.4,0-1.99.03-.23-.04-.2.25-.18v2.35c.22.03.12-.28.12-.43.11-2.54,0-5.07.25-7.61h.37c-.2.24-.17,1.44.08,1.49.26.03.89-.26,1.04-.44.19-.24.07-.53.18-.69s.53-.12.73-.23c.35-.21.41-1.3,1.62-.61.34.19.41.7.53.73.84.21,2.25-.93,3.07.11l.19-.61c.91-.12,2.31.01,2.67-1.01.76-.17,1.92-.24,2.65-.42.54-.14.93-.84,1.2-.91s.76.17,1.2.1.56-.43.88-.49c.39-.07,1.24-.22,1.6-.26.42-.05.79.2,1.17.07.61-.21.86-.91,1.19-1.29.14-.16.38-.24.55-.44.13-.14.13-.41.3-.57.28-.25.77-.27,1.11-.13l.14-.11c-.09-.42.37-.87.41-1.08.07-.36.03-1.09.17-1.56.02-.08,1.07-1.28,1.14-1.33.21-.15.47-.08.69-.18.17-.08.24-.32.47-.4.43-.15,1.49-.13,1.84-.39.19-.14.2-.46.34-.59.2-.21.92-.59,1.02-.78l-.14-.99c.14-.19.56-.07.81-.18.05-.02.8-.55.83-.59.22-.21.22-.76.4-1.02.19-.28.53-.26.75-.49,0-.24-2.38-.41-2.04.19.94.73-.88,1.73-1.03.65-.05-.39.57-.89.15-1-.72-.2-2.03.14-2.83.12-.54-.02-1.32-.26-1.84-.25-.46.01-1.06.38-1.38.37-.28,0-.44-.25-.62-.26-.31,0-.62.43-1.17-.01-.13-.19.25-.68.44-.72.36-.07.8.93,1.16-.33l-.31-.31c-.66.19-1.61-.15-2.2.03-.43.13-.36,1.27-1.25,1.21-.8-.05-.77-1.01-1.02-1.09-.17-.06-.98-.15-1.2-.13-.65.04-.95.58-1.5.49-.35-.06-.4-.43-.72-.65-.19-.13-1.06-.45-1.28-.46-.32-.01-.57.2-.87.24-1.22.13-2.13.07-3.33,0-1.09-.06-2.33.12-3.32-.51-.3-.19-.34-.54-.66-.7-.22-.11-1.69-.41-1.9-.35-.19.06-.32.29-.56.32-.28.04-.63-.14-.98-.14-.64.01-1.9.52-1.81-.67.02-.3.29-.48.27-.73-.05-.72-1.02-.33-1.4-.35-.13,0-1.41-.3-1.48-.34-.14-.08-.15-.32-.29-.36-.15-.04-.37.11-.57.08-.78-.11-1.31-.69-2.08-.15-.28-.07-.33-.42-.45-.44-.5-.12-2.25-.01-2.56-.23-.29-1.26,1.11-.53,1.71-.63.28-.05.45-.34.76-.37.48-.05.62.35.98.37.76.05,2.06-.39,2.86-.48,2.88-.33,6.18-.18,9.14-.38.29-.02.58.17.97.12.32-.04.6-.32.92-.38.07-.88-.67-1.15-1.42-1.21-.6-.05-1.09.16-1.59.12-.3-.03-.52-.24-.74-.24-.3,0-.62.29-.87.3s-.57-.18-.87-.19c-1.39-.05-2.6-.26-3.85-.33-1.03-.06-1.77.57-2.08-.91-.27-.28-.83-.08-1.06.19-.08.36,1.1.56.63,1.12-.28.34-1.62-.09-2.29.06-.49.11-.64.48-.94.56-.1.03-.74.1-.97.13-.9.14-1.77.14-2.67.3l-.39-.63-.52.35c-.86-.76-1.89,0-2.93-.09-.29.09-.19.48-.2.73h-.49s.12-.86.12-.86c-.7-.21-1.26-.49-2-.22-.42.16-.44.41-1.02.46-.96.09-1.54-.29-2.42-.5v-.74c.66-.07,1.94-.07,2.52-.27.19-.06.2-.32.33-.41.1-.06.68-.18.82-.18.68-.01.47.32.72.61.34.39.76-.42,1.02-.48.41-.1,1.31.6,1.76-.22-.22-.74-1.03-.32-1.54-.3-.75.03-1.77,0-2.47.12-.31.05-.25.33-.4.38-.12.04-1.33.25-1.46.25-.45.01-.85-.24-1.29-.25V0h3.59ZM14.58,1.76c-.75-.54-1.57-.12-2.26-.14-.37-.02-.72-.31-1.13-.37-.49-.07-1.04.03-1.54-.01l-.19.87-.8-.49c.28,1.1-1.04.5-.99,1.36.61.24.98-.14,1.53-.27,1.6-.36,2.86.15,4.44-.14.31-.06.63-.16.94-.24v-.56ZM30.19,5.44c.25.12,1.33.29,1.24-.18-.26-.39-.81-.43-1.18-.19l-.05.38ZM46.77,12c-.23-.33-.76.19-.94.21-.2.02-.46-.19-.67-.04-.27.19-.05.8.21.93.3-.04,1.66-.74,1.41-1.1ZM51.69,12.14c-.57.15-.23.85.21.72s.3-.85-.21-.72ZM60.22,14.74c-.36.09-.67.79-.34,1.04.17.12,1.14.32,1.43.42.24.08.35.33.61.38.51.1,1,.02,1.3-.43-.4-.72-1.34-.14-1.85-.37-.4-.19-.72-1.15-1.16-1.04ZM77.68,15.86c-.15-.26-.8-.34-.94.05-.14.6.55.99.54,1.22,0,.48-.81,1.05-.69,1.67.43-.18.47-.53,1-.57-.05-.32.36-.95.36-1.11,0-.24-.31-.34-.35-.51-.04-.19.21-.53.07-.77ZM191.51,17.3l.12-.4c-.12-.66-1.76-.22-1.01.39h.89ZM171.24,17.45l-.2-.61-2.73.83c-.77-.34-.39-.11-.62.03-.15.09-.4.06-.51.15s-.1.43-.27.53c-.29.17-1.57-.05-1.24.8-.25.02-.58-.14-.5.25,1.11.09,2.27-.05,3.36-.28.86-.19,2.03-.5,2.86-.73.22-.06.32-.38.54-.45.33-.1.73.05,1.06-.05.08-.02.99-.58.83-.72l-2.6.25ZM68.67,18.68c-.85-.33-1.1.05-.55.74l.55-.74ZM69.18,19.04c.07.1.8.1.72.45-.33.44-.9-.24-1.23.25.8.43.39.6.29,1.17s1.4-.14,1.72-.02c.4-.18.57-.57.44-1-.02-.07-.83-1.17-.9-1.21-.33-.2-.69-.1-1.06-.11l.02.48ZM43.2,28.81c1.68.68,1.61-1.1.05-.61l-.05.61ZM163.43,28.84c-.32-.13-.76.11-1.02.08-.3-.04-.35-.4-.82-.29s-.19.76-.62,1.12c-.57.49-1.12.18-1.64.34-.23.07-.35.41-.54.46-.15.04-1.81-.85-2.33-.84-.3,0-.64.42-1.02.46-.74.09-1.92-.56-2.25.58.34.47.49-.13.74-.25.72-.34.85.44,1.24.61,1.39.61,4.57.28,6.09.03,1.21-.19.7-.51,1.08-.9.19-.2.66-.11.88-.36.13-.15.43-.92.23-1.05ZM175.3,29.1c-.26-.26-1.43-.46-1.64-.03-.33.66.48.9.43,1.16-.05.23-.68.36-.61.63.43.53.84.31,1.28.35.16.01.29.2.49.19.05,0,.9-.26.95-.28.21-.11.25-.49.45-.54.06-.02,1.23.11,1.32.14.24.07.37.48.64.47.35,0,.84-.66.3-.93-.23-.12-1.17-.26-1.31-.43-.11-.14.22-.85-.25-.99-.24-.07-.43.18-.61.2-.27.03-.59-.22-.91-.03l-.31.8c-.28-.17,0-.5-.21-.71ZM179.28,29.69c.04-.2-.07-.25-.18-.37-.78-.82-1.06.79.18.37ZM190.27,29.11c-.35.04-2.2.38-1.36.81.44.22.73.02,1.07.04.39.03,2.03.34,2.17-.09l-.05-.43c-.61-.37-1.13-.41-1.83-.33ZM211.32,31.79c-.56-2.21-.96.2-1.84-.55-.12-.1-.2-.38-.31-.4-.09-.01-.37.2-.69.17-.5-.05-.91-.41-1.33-.53-.52-.16-2.34-.65-2.82-.66-.38,0-.52.22-.85.26-.44.06-3.92.04-4.15-.07-.12-.05-.26-.31-.31-.31s-.23.34-.5.37c-.2.02-.91,0-1.23,0s-2.12-.13-2.18.07v1.04c.77.09,1.53.15,2.3.18.9.04,1.55.25,2.48.32.56.04,1.36-.09,1.85,0,.27.05.35.31.62.37s1.03.03,1.3-.05c.36-.11.64-.7,1.02-.66.18.02.43.25.67.32,1.12.31,2.13.87,3.31.96.26.02.63-.14.93-.07-.1-.38-.13-.71.37-.74.13.32.03,1.12.56.99.24-.12.04-.35.12-.49.06-.09.51-.46.67-.51ZM169.66,31.4c.52.48,2.16-.17,1.52-1.09-.34-.48-1.95.7-1.52,1.09ZM39.83,30.57l-.59.2.42.53.17-.73ZM172.97,30.69c-.4-.06-1.02-.56-1.21.09-.31,1.02,1.29.99,1.21-.09ZM219.48,31.57c-.26-.16-.49.24-.69.33-.35.15-.76.18-1.09.4l-.17-.44-.61-.04-.14.48.37.25-.37-.06v.54c1.05.35,1.95-.84,3.06-.69l.41-.4c-.67.29-.62-.27-.76-.36ZM21.66,38.11l-.12-.56-.63-.06v.87c.26-.13.42-.42.74-.25ZM18.19,37.86h-.49v1.86h.49v-1.86ZM230.23,39.74c-1.09.32.82,1.65,1.21.72.16-.37-.85-.83-1.21-.72ZM228.9,49c-.36-.25-.78-.19-1.12-.31-.42-.14-.61-.7-1.3-.67-.21,0-.35.18-.5.2-.28.02-.53-.14-.95-.06-.3.06-.65.41-.92.44-.28.04-.53-.15-.93-.07-.42.08-.82.38-.71.84-.46.13-.39-.35-.73-.44-.75-.21-1.09-.05-1.71.04-.24.04-1.38,0-1.27.46.13.55,2.42.47,2.91.44.33-.02,1.05-.09,1.33-.16.34-.08.7-.44,1.03-.47.36-.02.63.3.99.36.4.07,1.83.02,2.32,0,.25,0,1.17-.23,1.41-.33.16-.08.2-.01.16-.27ZM198.46,62.85h-.49s0,1.11,0,1.11l.36.07c-.42.07-.1.42-.15.62-.03.12-.06-.08-.11.47-.05.49-.25.91.01,1.44l.24-.25-.12.49.37.13c-.02-.39.01-3.59-.15-3.69-.11-.07-.34.05-.35-.08l.37-.31ZM65.06,65.11c-.38-.03-.82.27-.48.65l.37-.31.14.22.6.03-.12-.56-.36-.03-.08.23-.08-.22ZM198.06,67.33l-.66-.03-.06,1.49c.43-.09.08-.95.12-.99.42.03.91.05.59-.47ZM102.57,73v-2.97c-.35.09-.12.25-.12.31v2.66h.12ZM191.66,70.15c-.29-.02-.22-.04-.25.18-.06.43-.02,1.12.06,1.55.02.13.01.4.19.37v-2.1ZM123.71,70.54l-.48-.14c-.17.24.2,4.44-.03,4.8-.04.06-.24-.03-.22.08-.02.11.18.02.22.08.1.15-.03,1.69-.02,2.02.02.8.06,1.62.18,2.41h.37s-.02-9.26-.02-9.26ZM122.86,70.9v-.37c-.45.06-.69.85-.12.87v.12c-.38-.04-.36.33,0,.43l-.25.43.25.12c-.62.54-1.07.57-.99-.37h-.62s0,.37,0,.37l.5.12c-.76-.06-1.14.77-.08.5.1-.03.07-.26.14-.25.2.02.36.31.67.13l.13,1.28.25.08-.26.3v4.9s.39-.3.39-.3v-8.06s-.26-.24-.26-.24l.25-.06ZM178.79,73.12l-.3-.37c-.57.39-1.1.33-1.74.37-.25.02-.36-.1-.31.25l2.35-.25ZM98.61,73.37v2.85h-.5s0,.99,0,.99c.37-.34.77-.25,1.24-.25v-.62s-.69.35-.74,0l1.98-.12-.91.14c-.21.07-.2.23-.21.41,0,.46.98-.05,1.12.31h-1.98v.37s.25-.25.25-.25c-.02.18.03.21.18.27.22.09,2.48.27,2.71.22.07-.02.17-.34.44-.26l.02-1.35c-.27.24-.4.2-.74.12l.5-.12v-1.36s-2.97.25-2.97.25l.12-1.61h-.5ZM155.41,84.88v-4.39l-.48-.2-.02-2.33h.37s-.07,1.28-.07,1.28l.2,1.07v-2.72l-.49.25v-1.11c.59-.12-.01.72.49.62l-.11-2.03-.39-.14v-1.1c.03-.13.58.08.38-.56l-.13.36h-.73s.37.14.37.14v1.23s-.37,0-.37,0v-1.11c-.22.07-.15.76-.13.93.01.11,0,.22.06.32l.32.05.12,1.17h-.37s-.12-1.11-.12-1.11v1.48s.18-.25.18-.25l.31.07v.43s-.49-.12-.49-.12v.37s.49-.06.49-.06c.04.48.03.39-.37.49l.36.07.02,1.16-.38.13.36.07.02.92-.38.13.36.07.02,1.16-.38.07c.51.34.37.59.38,1.17l-.38.19c.17.03.35-.14.38.18.02.22-.07,1.8.06,1.8l.06-1.98h.37c.06.42-.06.85-.05,1.25,0,.13-.02.62.17.6ZM170.99,73.49h-.49s.37,3.34.37,3.34c.16.2.22-.01.25-.18.12-.95-.29-2.16-.12-3.16ZM60.88,74.11c-.37-.36-1.36.95,0,.74v-.74ZM138.3,74.15c-.33-.16-.8.17-.58.45l-.62.12.46.06c-.12.14-.12.26.09.19.08-.02.07-.39.58-.31.31.05.12.4.48.31l.06-.37.31.37.13-.49c-.23-.1-.57-.07-.77-.13-.11-.04-.1-.18-.13-.2ZM145.14,77.58l-.25.31c-.03.36.16,2.08.08,2.23-.1.18-.33.13-.33.24.6.2.2,1.02.37,1.55l-.37.12c.14,0,.3.06.35.2.06.19-.08,1.52-.05,1.91.01.16-.08.31.19.37v-3.59h.37s0,.91,0,.91l-.25.14.25.14v2.39c.32-.06.12-.54.12-.74l.37.37v-8.04l-.8.25-.31-.37c-.08.33-.22.82-.13,1.15.04.15.31.06.37.46l.49-.25-.12,3.46h-.37s.09-.37.09-.37l.15-.07-.25-.14c-.09-.81.12-1.86,0-2.64ZM138.58,76.22h-.99s0,1.24,0,1.24l.99-.12v-1.11ZM139.94,76.22h-.62v1.11h.62v-1.11ZM136.97,76.34h-.62v1.11h.62v-1.11ZM134.97,78.67c-.02-.42.24-1.33-.35-1.34l-.13.37h.37s0,.5,0,.5h-.37s0,.25,0,.25l.37.12-.49.25.6-.14ZM176.44,86.73v-8.04l-.18.25c-.42-.19-.37-.72-.55-.94-.04-.05-.96-.58-1-.55.19.43.58.71.87,1.05.18.21,0,.45.5.5.13,1.33-.2,3.04-.02,4.33.04.29.23.44.26.73.09.74-.22,1.51-.06,2.46.02.13-.2.29.18.2ZM99.98,77.7c-.31,0-.62-.01-.93,0-.15,0-.46-.09-.43.12l.61.02.08.37h.68s0-.5,0-.5ZM144.02,77.7h-.49v7.3l.49-.25c-.61.02,0-.52,0-.56v-3.77h.37s-.05,2.17-.05,2.17l.18,1.67v-6.56h-.12v2.6h-.37v-2.6ZM136.97,78.19h-.62v1.24h.62v-1.24ZM138.56,78.22l-.97-.02.06.74.26-.13.43.13-.25-.37h.62s-.14-.35-.14-.35ZM7.45,80.14c-.07-.04.06-.27-.14-.22v.74s.94-.23.94-.23c.26.62.38-.12.79-.01v.87s.49-.12.49-.12v.37c.22.27.38-1.38.06-1.48l-.06.25c-.34.13-.19-.22-.31-.25h-.18s0,.25,0,.25h-.24c.05-.53-.44.15-.38-.37l-.12.37c-.24-.19-.66-.05-.84-.16ZM136.97,80.17h-.62v.99h.62v-.99ZM53.33,82.15v2.6c.49.17.43-.39.38-.81-.03-.24-.24-.12-.27-.35-.07-.58.15-1.73.13-2.36,0-.3-.18-.61-.13-.93l-.12,1.24-.24-.62c-.03.97-.11,1.88,0,2.84l.25-1.61ZM50.98,81.04v1.86l.25-1.61c.17-.18.23.01.25.18.06.47-.1.96-.12,1.42.5-.38.14-1.31.25-1.86h-.62ZM179.78,84.51v-3.09h-.12v3.09h.12ZM149.96,81.66h-.87s0,.49,0,.49h.86s0-.49,0-.49ZM138.45,82.22c-.12.93.09,2.08,0,3.03h.12v-2.91c.69-.6.47.77.49,1.24,0,.14-.08.34.12.31l.06-.37.31.25v-1.61s-.12.49-.12.49c-.49.09-.1-.34-.15-.47-.01-.04-.55-.44-.7-.38.02.15-.13.32-.14.42ZM170.38,82.28l-.25-.32-2.35.19,1.18.13c.5.01.94-.29,1.42,0ZM12.38,82.4c-.6.18-1.19.07-1.78.13-.12.01-.47.05-.44.23.66,0,1.28.04,1.93-.12.21-.05.36.12.3-.25ZM167.78,82.77h2.29s.36-.12.31-.25h-.93s-1.66.25-1.66.25ZM10.34,83.64c.6-.03,1.2.02,1.79,0l-.49.25c.1.34.49.06.74.25-.03-.33.05-.74,0-1.06-.03-.19.07-.19-.19-.19-.62,0-1.36.25-2.04.13-.2.15,0,.22.18.25.58.07,1.23-.03,1.8-.12.05.34-.06.23-.31.25-.51.03-1.04,0-1.55.06l-.12.12c-.03.38.13.06.18.06ZM50.24,83.02l-.37.07-.25,1.78h.37c-.06-.25-.05-.67,0-.9.03-.13.35-.06.24-.4l-.25-.06.15-.13.09-.36ZM106.03,83.89h-1.23s.56.74.56.74l.2-.23.23-.02c.05.28.26.41.38.68.04.09.06.26-.12.11-.02-.02,0-.22-.18-.18h-.94c-.02.48-.1.57.42.51l.14-.25c.33.38,1.04,0,1.55.12l-.12-.37.99-.13-1.74-.18-.12-.8ZM169.26,84.75h2.47c.09-.41-.3-.21-.56-.25l-1.91.25ZM170.93,85.12c-1.09.06-2.19-.04-3.28,0v.12h4.08v-.25c-.28-.12-.64.11-.8.12ZM12.19,85.62c.63-.05,1.29.03,1.92,0,0-.26.08-.24-.16-.21-.28.02-.61.07-.88.07-.45,0-.94-.36-1.31.2.1.2.35-.06.43-.06ZM106.16,85.99l-2.97.18c.94.37,1.98.36,2.97.18v-.37ZM52.71,88.84h-1.36s0,.49,0,.49h.68s.08-.36.08-.36l.61-.14ZM53.93,88.98c-.2-.15-1.03.45-.85.6h1.24s-.39-.6-.39-.6ZM58.9,88.96c-.23-.07-.3.19-.47.23-.68.15-1.55-.15-2.18-.11-.05,0-.12.39-.64.39-.22,0-.17-.2-.27-.25-.9-.38-1.25.28-.47.37l4.27.12c-.19-.3-.43-.34-.25-.74ZM7.43,100.59H3.22v.12h4.21v-.12ZM16.21,100.59h-3.71v.12h3.71v-.12ZM27.6,100.59h-6.43v.12h6.43v-.12ZM36.38,100.59h-6.31v.12h6.31v-.12ZM46.15,100.59h-5.32v.12h5.32v-.12ZM56.42,100.59h-4.83v.12h4.83v-.12Z"/>
    <path class="cls-68" d="M0,22.52c.29-.01.64.01.9.15s.3.43.42.47.32-.04.46,0c.95.31,1.83.4,1.32,1.67l-.75.05.25.68-.37.72.6.53c-.32.68-.08.64.01,1.1.04.2-.47.74-.65.83-.23.11-.47.1-.71.09l.23-.7-.18-.28L0,28.09v-5.57Z"/>
    <path class="cls-19" d="M176.18,55.56s-.01.41.26.55c.22.12.97.14,1.29.2.2.03.34.22.51.23.61.07,2.14-.55,3.19-.22.26.08.3.49.7.22l-.25.49c.58.43,1.2.26,1.74.43.89.27-.11.9-.71.93s-1.28-.32-2.06-.09c-.18.05-.29.3-.47.4-1,.55-1.08.17-2.03.19-.7.01-1.6.29-2.35.35s-1.05-.2-1.98.15c-1.44.54-.6,1.01.43.74-.06.21.14.54.11.67s-.23.14-.27.19c-.43.6.86.57.66-.24h.43s.18.56.18.56l.5.11c-.23.53-.91.58-1.44.64-.73.08-.84.2-1.35.29-.67.11-1.54-.08-2.22,0-.39.05-.82.42-1.17.19-.12-.08-.15-.38-.33-.42-.22-.06-.8.35-1.01-.35-.22-.73.45-1.11.91-1.52l-.06-.32c-.37-.11-.7,0-1.09-.15-.42-.17-.96-1.41-1.03-.41-.83-.04-1.26.65-2.2.36l-.09-.6.57-.32-.19-1.17-1.31-.3c.09-.41.55-.57.92-.56.43.01.92.43.81-.24,1.18.23,1.57-1.17,2.79-1.1.24.01.62.55,1.12.57.46.02.78-.4,1.21-.46,1.28-.18,3.26.05,4.58.11.17,0,.57-.18.67-.09Z"/>
    <path class="cls-87" d="M150.04,54.86s.03.17.13.19c.22.05,1.3.06,1.39.15l.08.36c.4-.07.97.08,1.33-.01.08-.02.36-.16.76-.25.19-.04.35-.24.5-.24.04,0,.62.25.65.28.11.12.09.55.19.75.15.32.92.76.71,1.45-.45.05-.96-.34-1.11.3.26.48.76.36,1.18.57v1.12c-.36.42-.74.09-1.11.12-.21.02-.37.2-.54.23-.36.05-.69-.11-1.07.15-.12,0-.18-.74-.56-.62l.12.67-.2.17c-.93.12-1.78.54-2.71.63-.57.05-1.14,0-1.71.02-.78.03-1.3.44-1.06-.86-.34-.21-.7,0-.99-.06-.18-.03-1.36-.38-1.43-.43-.41-.31-.3-1.44.33-1.45-.05-.31.16-.81-.24-.8.06-.96,2.16.17,2.34.08.31-.19.49-.89.68-1.06s.49-.09.69-.3c.22-.24.18-.88.36-1.01.18-.12.4.07.55.05.3-.06.16-.52.77-.17ZM148.35,57.28c-.64-.05-.67.5-.62.99l.63-.21v-.78Z"/>
    <path class="cls-63" d="M40.49,66.84c.1-.13.45-.13.56,0l.15.71c-.9-.2-.63.48-.99.8-.19.17-.6.16-.75.36-.14.18-.06.49-.18.58-.22.16-1.22.22-1.55.3-.46.12-1.29.47-1.79.54-.55.08-1.57-.03-2.05.07-.33.07-.64.57-1.42.67-1.95.23-1.38-1.09-2.64-1.3-.42-.07-.66.16-1.05.2-.54.05-1.67-.05-1.77-.71-.09-.26.85-1.4.97-1.46.56-.28.56.28.71.32.75.2,1.33-.65,1.85-.97.38-.24.86-.34,1.22-.65.28,0,.37.52.71.66.09.04,1.09.34,1.15.34.29.03,1.68-.71,1.98-.75.49-.06,1.19.33,1.72.38.86.09,1.45-.07,2.22-.37.29.08.06.7.51.75.49.05.33-.3.46-.47Z"/>
    <path class="cls-91" d="M77.94,35.9l.03.67c-.57.7-1.25-.6-1.38.24-.1.65.77.74.63,1.42.62-.2.95.11,1.54.24.43.29-.56.65-.79.82-.17.13-.22.35-.41.47-.4.27-.89.17-1.08.76.51.49.23-.37,1.01-.15.34.09.74.43,1.21.4v.37c-.19.13-1.34.44-1.56.43-.26-.02-.32-.29-.5-.33-.27-.06-1.54.14-1.77.28-.15.09-.18.42-.48.49-.2.04-.52-.11-.81-.06-.56.1-1.1.45-1.84.22-.16-.05-.25-.26-.42-.32-.25-.08-.6.07-.78-.21.22-.63.87-.8,1.06-1.54.07-.29-.04-.7-.01-.75.09-.15.49-.15.66-.45s.08-.67.17-.94c.06-.17.25-.25.32-.43.07-.19-.01-.45.09-.66.16-.33.76-.05.56-.74.54.23,1.89-.3,2.28-.22.14.03.24.27.41.32.67.21,1.2-.56,1.88-.33Z"/>
    <path class="cls-36" d="M205.14,50.36c-1.05-.1-1.77.57-2.87.34-.57-.12-.64-.5-1.14-.59l-.75.63c-.44-.51-1.28-.31-1.55-.81.05-.2.84-.36,1.03-.55.14-.14.11-.38.26-.51.27-.22.76.04.25-.84-.13-.22-.63-.56-.66-.71-.07-.39.62-.4.85-.49.15-.06.26-.23.47-.28.45-.1,3.68.1,3.94.34.4.38.08,2.81.18,3.47Z"/>
    <path class="cls-90" d="M90.08,52.58c.6.11.57-.24.82-.62h1.4c.07.23-.19.3-.23.47-.06.24.25.54-.02.72-.12.08-.35.05-.49.13-.17.09-.89.81-1.13.97-.82.55-1.39.23-2.13.35-.2.03-.33.24-.46.28-.34.1-.67.02-.94.3l-.28-.18c.08-.45.21-1.03.12-1.48-.07-.36-.52-.13-.37-.98.23-1.23,1.29-1.09,2.16-1.56.59.64,1.2.19,1.79.69l-.25.92Z"/>
    <path class="cls-1" d="M98.49,37.49l-.06.99c.24.4,1.26-.02,1.41.83.14.8-.77,1.07-.72,1.33.04.22.67.1.8.05.58-.2.6-.62,1.41-.1.27.45-.62.94-.94,1.06-.08.03-1.14.29-1.21.29-.66,0-.29-.65-.63-1.01-.56.25-1.07-.06-1.58.01-.36.05-.53.34-.81.43-.15.05-1.43.31-1.5.25l-.19-1.19.68-.12.18-.62.82-.11v-.61c.66.11.54-.33.83-.63l1.52-.86Z"/>
    <path class="cls-32" d="M118.14,29.48s.02.26.2.22l1.25-.14c.23.31-.07,1.28-.38,1.34-.12.03-.37-.12-.6-.1-.53.05-1.85.65-2.35.62-.35-.02-1.17-.59-1.85-.46-.13.03-.33.31-.57.41-.54.22-1.24.29-1.61-.25,0-.37,2.62-.74,3.02-.82.53-.11,1.37-.16,1.72-.26.25-.07.85-.73,1.18-.56Z"/>
    <path class="cls-85" d="M86.47,32.31c.28,1.17,3.05-.13,3.53.23s-.6.68-.92.55c.02.82-1.05,1.52-1.77,1.43-.18-.02-1.38-.84-1.42-.95-.09-.28.03-1.16.29-1.28h.29Z"/>
    <path class="cls-74" d="M183,60.88c.81-.14,1.02-1.22,1.98-.74-.03.22-.27.2-.4.27-.66.36.9.55,1,.14.03-.12-.15-.27.01-.49.32-.44,1.31-.34,1.56.06.05.08-.04.26,0,.37.1.27.6.95.11,1.09-.05.01-.9.04-.97.04-.55-.05-1.25-.46-2-.49-.4-.02-1.23.43-1.29-.26Z"/>
    <path class="cls-65" d="M176.07,52.34l.09-.37c.47.06.43-.55.65-.68.35-.21,1.06.08,1.32-.54.54.07,2.07-.11,2.13.56-.29.77-1.37.43-1.77,1.15-.72-.92-.86.08-1.24.13-.51.07-.7-.53-1.17-.26Z"/>
    <path class="cls-26" d="M132.66,57.52l.68.26-.07.75c-1.19-.33-2.3.16-3.46-.25l.05-.86c.46-.61,1.9-.13,2.17-.31.13-.08.05-.43.43-.31l.2.72Z"/>
    <path class="cls-14" d="M52.65,67.8c.66.74-.36.88-.19,1.61-.04.04-.84-.04-1.05,0-.25.05-.32.27-.6.34-.76.2-1.04-1.95-.15-1.95h1.98Z"/>
    <path class="cls-29" d="M233.47,52.94c-.25.37-2.09.07-2.52.14-.26.04-.46.26-.74.24-.35-.02-.9-.47-.81-.86.58-.21,1.23-.04,1.79-.13.33-.05.57-.34.87-.35.43-.02,1.84.34,1.42.96Z"/>
    <path class="cls-58" d="M132.74,32.94c.04.07.13.87.09.96-.03.08-.7.72-.82.8-.75.51-.82.12-1.6-.05-.01-.39.49-.41.67-.75.19-.35.05-.7.44-1.04.1-.09.54-.32.66-.29.03,0,.53.35.55.38Z"/>
    <path class="cls-54" d="M58.28,67.06c.14.66-.89.46-.74,1.11h1.36c.5.45-1.99.49-2.15.51-.23.03-2.07.65-2.05.17.55-.33.22-.95.61-1.36.65-.37.96.4.74.93.18,0,.37.03.55,0,.9-.16.43-1.52,1.68-1.35Z"/>
    <path class="cls-12" d="M105.64,66.09l.28.17c.13.52-.57.7-.68.92-.15.31.07.75-.24,1.01l-1.5-.13.06-.82c.78-.38,1.15-1.11,2.08-1.14Z"/>
    <path class="cls-17" d="M103.84,39.25c-.1.06-.13.39-.36.44-.51.1-.92-.65-.98-1.09.79-.97,1.42-.49,1.92.44-.13.24-.43.12-.58.22Z"/>
    <path class="cls-4" d="M169.01,53.57c.62.2.89-.57,1.11-.68.06-.03,1.11-.27,1.21-.28.26-.02.59.08.77.28-.32.37-.86.09-1.27.21-.31.09-1.63,1.85-1.82.47Z"/>
    <path class="cls-64" d="M62.73,67.56c.07.38-.12.19-.29.26-.4.16-1.47.43-1.88.48-.46.05-.95-.02-1.42,0,.04-.15.2-.29.34-.34.86-.29,2.32-.27,3.25-.4Z"/>
    <path class="cls-13" d="M104.55,40.21l.26-1.59c1.41-.29.79,1.81-.26,1.59Z"/>
    <path class="cls-46" d="M162.33,57.04l-1.06.87c-.22.03-1.28-.23-1.29-.44l1.45-.4.9-.03Z"/>
    <path class="cls-76" d="M222.9,40.71c.08-.02,1.44.12,1.58.15.24.05.43.23.58.41,0,.56-1.99-.02-2.29-.31-.12-.07.09-.24.13-.25Z"/>
    <path class="cls-42" d="M149.55,72.4c.2-.05,1.01-.06,1.2,0,.37.12.28.59-.23.61-.31.01-1.6-.45-.97-.61Z"/>
    <path class="cls-28" d="M131.64,74.37l.38.67c0,.23-.82.24-.99.13-.41-.28.27-.85.61-.8Z"/>
    <path class="cls-88" d="M28.58,73l-.96.34c-.48-.03-1.3.5-1.14-.21l2.1-.12Z"/>
    <polygon class="cls-7" points="198.21 49.37 198.46 50.11 197.23 50.23 197.22 49.86 197.7 49.85 197.85 49.37 198.21 49.37"/>
    <path class="cls-3" d="M173.59,40.7c-.03-.22.28-.12.42-.11.19.02,1.19.13,1.19.29-.6.72-1.02.1-1.6-.19Z"/>
    <path class="cls-79" d="M129.3,57.41l-.93.38c-.17.01-.24-.76.13-.85.29.07.83.06.79.47Z"/>
    <path class="cls-61" d="M239.04,38.73c-.28,0-1.45.11-1.24-.43.14-.36,1.24.05,1.24.43Z"/>
    <path class="cls-37" d="M36.26,57.53l-.13.74-.74-.12c-.06-.56.39-.68.87-.62Z"/>
    <path class="cls-62" d="M83.4,31.3l.71-.46c.65-.17.68.48.06.57-.25.03-.52-.14-.78-.1Z"/>
    <path class="cls-21" d="M185.23,58.39v-.6c.35-.07.65,0,.85.3-.21.3-.5.37-.85.3Z"/>
    <path class="cls-2" d="M133.46,32.43c.19-.06.46-.03.53.19l-.17.54c-.39-.03-.87-.57-.36-.73Z"/>
    <path class="cls-20" d="M133.5,56.29l-.55.25c-.25-.17-.19-.48-.19-.74.32-.06.76.08.74.49Z"/>
    <polygon class="cls-66" points="73.11 19.07 72.94 19.55 72.32 19.06 72.39 18.68 73.11 19.07"/>
    <path class="cls-8" d="M124.35,30.07l-.07.38c-1.16.58-.99-.64.07-.38Z"/>
    <path class="cls-86" d="M9.65,29.57c-.38.78.27.5.25,1.11-.92-.07-1.38.02-1.81.86-1.2-.39-.18-.84.2-1.41l1.35-.56Z"/>
    <path class="cls-31" d="M5.57,31.55c-.08-.44.54-.43.68-.62.21-.28-.02-.98.57-.69.03.34.46,1.49.31,1.69-.35.48-1.18-.28-1.56-.38Z"/>
    <path class="cls-78" d="M8.48,72.01c.36-.07,1.04,1.29.35,1.47s-.66-1.4-.35-1.47Z"/>
    <path class="cls-30" d="M6.02,29.35c.16-.01.29.08.41.16l.12.37-1.05.43c-.36-.05.1-.93.51-.96Z"/>
    <path class="cls-75" d="M209.35,31.92c.02.8-1.4.12-1.11-.12l1.11.12Z"/>
    <rect class="cls-43" x="154.91" y="81.66" width=".37" height="1.24"/>
  </g>
</svg>